<svg xmlns="http://www.w3.org/2000/svg" xmlns:xlink="http://www.w3.org/1999/xlink" width="237" height="176.15" viewBox="0 0 237 176.15"><defs><style>.a,.c{fill:#606dc3;}.a,.i{opacity:0.1;}.b{opacity:0.8;}.d{fill:#444053;}.e,.f{fill:none;stroke:#444053;stroke-miterlimit:10;}.f{stroke-width:0.75px;}.g{fill:url(#a);}.h{fill:#fbbebe;}.j{fill:#3f3d56;}</style><linearGradient id="a" x1="0.5" y1="1" x2="0.5" gradientUnits="objectBoundingBox"><stop offset="0" stop-color="gray" stop-opacity="0.251"/><stop offset="0.54" stop-color="gray" stop-opacity="0.122"/><stop offset="1" stop-color="gray" stop-opacity="0.102"/></linearGradient></defs><g transform="translate(0.004 -0.05)"><path class="a" d="M232.925,116.644c-15.194-.392-29.664-4.036-43.482-8.022s-27.5-8.411-42.334-10.524c-9.538-1.359-20.448-1.552-28.131,2.249-7.4,3.653-9.787,9.959-11.071,15.827-.967,4.406-1.535,9.043,1.113,13.168,1.841,2.864,5.1,5.27,7.362,8.015,7.857,9.545,2.3,21.314-6.209,30.634-3.991,4.371-8.627,8.541-11.71,13.2s-4.507,9.984-1.81,14.734c2.672,4.7,9.041,8.238,15.94,10.724,14.013,5.05,30.519,6.493,46.626,7.313,35.644,1.812,71.475,1.026,107.212.235,13.226-.291,26.509-.585,39.519-2.113,7.226-.843,14.684-2.183,19.931-5.416,6.658-4.1,8.308-11.052,3.845-16.2-7.484-8.632-28.171-10.778-33.409-20.041-2.878-5.1.077-10.778,4.263-15.508,8.977-10.144,24.023-19.044,24.814-30.641.545-7.963-6.688-15.94-17.872-19.708-11.722-3.949-27.979-3.453-36.623,3.085C261.991,114.39,246.342,116.982,232.925,116.644Z" transform="translate(-95.23 -91.909)"/><g class="b" transform="translate(170.214 0.05)"><path class="c" d="M870.468,116.809s-2.648-1.075-11.071,2.789-9.475,3.373-11.656,2.782-3.4-.73-5.735-3.956c0,0-1.643-8.937-3.244-10.329s-8.376.791-8.376.791-8.127,1.869-9.686-9c0,0,1.1-8.188-.4-10.7,0,0,3.024,1.3,8.01-.8s8.977,2.268,8.977,2.268a16.365,16.365,0,0,1,1.127,5.2c-.131,1.939.664,2.672,3.052,1.733,0,0,1.174-1.662-.486-4.409s-2.836-4.794-2.373-6.928a8.61,8.61,0,0,1,6.054-6.573c4.266-1.484,10.062-1.761,12.844-2.906a10.3,10.3,0,0,0,3.453-1.913s-1.711,1.716,2.322,8.984,1.463,10.426,1.463,10.426-2.146,5.113-11.616,4.7c0,0-9.125.333-4.151,4.2,0,0,3.186-.648,7.951-2.162s8.2,4.735,9.055,9.083A11.4,11.4,0,0,0,870.468,116.809Z" transform="translate(-820.3 -74.85)"/><path class="d" d="M958.328,98.244l.049-.014c.366,1.387-3.712,6.961-7.2,11.393l-.04-.031C956.056,103.341,958.62,99.31,958.328,98.244Z" transform="translate(-920.424 -92.741)"/><path class="d" d="M919.047,146.24l.021.056c-2.784,3.54-6.287,7.766-9.09,10.9-.268.3-.533.61-.786.939l-.082-.063c.258-.322.523-.636.791-.939C912.7,153.994,916.266,149.778,919.047,146.24Z" transform="translate(-888.261 -129.481)"/><path class="d" d="M888.31,196.22l.056.094c-5.1,6.369-5.439,16.257-5.451,16.344l-1.075-1.23C881.852,211.329,883.173,202.631,888.31,196.22Z" transform="translate(-867.393 -167.727)"/><path class="e" d="M879.416,170.863s-6.015-3.127-10.7-2-15.241-3.967-15.241-3.967-4.482-1.819-5.383-3.895c0,0-3.073-3.251-3.249-4.93s-3.176-5.914-5.12-6.066" transform="translate(-835.161 -132.358)"/><path class="e" d="M996.283,237.281s-3.028-2.04-2.676-4.421" transform="translate(-952.9 -195.766)"/><path class="e" d="M969.768,237.667s-4.334-1.573-4.768-7.747" transform="translate(-931.03 -193.516)"/><path class="e" d="M945.6,238.957a9.692,9.692,0,0,1-2.765-9.437" transform="translate(-913.856 -193.21)"/><path class="e" d="M915.438,231.463s-2.756-5.782-.3-9.543" transform="translate(-892.093 -187.394)"/><path class="e" d="M1000.781,222.63s-3.134,1-2.46,2.643" transform="translate(-956.456 -187.937)"/><path class="e" d="M979.011,198.41s-4.193,1.329-4.291,7.261" transform="translate(-938.468 -169.403)"/><path class="e" d="M956.5,192.58s-3.815,4.709-3.545,8.989" transform="translate(-921.803 -164.942)"/><path class="e" d="M928.719,200.45s-3.791,3.622-3.308,5.634" transform="translate(-900.703 -170.964)"/><path class="e" d="M916.7,193.271s-3.554.636-4.05-.531" transform="translate(-890.97 -165.064)"/><path class="e" d="M910.23,176.72s1.8,2.378,2.258,1.845" transform="translate(-889.118 -152.805)"/><path class="e" d="M950.244,163.629s-8.958.65-10.984-2.049" transform="translate(-911.333 -141.219)"/><path class="e" d="M902.2,125.68s4.2,9.022,7.256,10.172" transform="translate(-882.973 -113.747)"/><path class="e" d="M921,107.37s2.582,8.3,5.78,10.891" transform="translate(-897.36 -99.736)"/><path class="f" d="M966.572,141.025s-6.808,2.923-10.9-.035" transform="translate(-923.891 -125.463)"/><path class="f" d="M946.84,99.83s1.557,6.1,3.653,7.576" transform="translate(-917.133 -93.966)"/><path class="f" d="M980.589,112s-3.829,1.448-5.259.338" transform="translate(-938.935 -103.279)"/><path class="e" d="M891.538,185.21s0,5.317-1.448,5.7" transform="translate(-873.706 -159.302)"/><path class="e" d="M845.84,206.494s5.752.493,8.4-2.474" transform="translate(-839.844 -173.696)"/><path class="e" d="M872.9,158.45s-1.39,5.4-5.228,6.846" transform="translate(-856.549 -138.824)"/><path class="e" d="M831.15,183.228a7.545,7.545,0,0,0,7.571-2.188" transform="translate(-828.603 -156.111)"/><path class="e" d="M861.3,138.7s-.385,4.58-2.876,6.724" transform="translate(-849.471 -123.711)"/><path class="e" d="M831.81,157.118s3.378.021,4.169-1.078" transform="translate(-829.108 -136.98)"/></g><ellipse class="a" cx="51.178" cy="3.639" rx="51.178" ry="3.639" transform="translate(10.531 168.922)"/><path class="g" d="M268.409,337.915c.7-1.265,1.547-2.458,2.228-3.74.622-1.174,1.108-2.418,1.669-3.625.96-2.066,2.143-4.019,3.221-6.029a7.778,7.778,0,0,0,1.249-4.24c-.129-1.409-.955-2.629-1.275-3.991-1.3-5.59-4.43-10.721-6.339-16.128-.488-1.371-.962-2.751-1.573-4.075a43.159,43.159,0,0,0-4.46-7.106,20.064,20.064,0,0,0-1.972-2.451c-.589-.589-1.251-1.108-1.786-1.747-1.1-1.315-1.62-3.207-3-4.226-.023.061-.049.12-.075.181-.988-2.524-4.3-4.188-6.226-6.28a36.961,36.961,0,0,1-3.082-4.05l-4.186-6.05a10.165,10.165,0,0,1-1.747-3.355c-.357-1.5-.026-3.094-.378-4.592a5.791,5.791,0,0,0-1.279-2.432c.04-.012.082-.028.124-.038.8-.214,1.643-.251,2.434-.441,1.725-.411,3.226-1.514,4.944-1.956a12.057,12.057,0,0,0,2.611-.7,2.169,2.169,0,0,0,1.009-2.305c-.556-2.946,1-5.932.735-8.921-.07-.826-.282-1.632-.418-2.451a25.982,25.982,0,0,1-.146-5.78,12.208,12.208,0,0,1,1.913-2.378,15.765,15.765,0,0,0,3.052-3.153,6.148,6.148,0,0,0,.634-3.784,3.651,3.651,0,0,0-1.174-2.5,2.951,2.951,0,0,0-2.7-.315c-.124.04-.247.089-.366.141a3.078,3.078,0,0,0-2.427-.141,7.356,7.356,0,0,0-2.376,1.5,5.43,5.43,0,0,0-1.108,1.174,6.961,6.961,0,0,0-.756,2.4,23.476,23.476,0,0,1-1.585,4.646c-.127.263-.47.735-.747,1.186l-.5-.1c-.218,2.092-1.97,3.627-3.035,5.435-.519.878-.883,1.838-1.35,2.747a26.626,26.626,0,0,1-1.782,2.857q-.951,1.409-1.9,2.791a39.669,39.669,0,0,1-2.582,3.493c-.862-.07-1.723-.134-2.582-.148a20.962,20.962,0,0,0-4.3.383,11.97,11.97,0,0,1-.153-1.5v-.092c0-.122.014-.268.031-.425a8.686,8.686,0,0,0-.416-14.7,6.312,6.312,0,0,0,.089-.8v-.47a1.108,1.108,0,0,0-.016-.235,3.1,3.1,0,0,0-.08-.47c-.019-.075-.04-.15-.066-.235a2.218,2.218,0,0,0-.195-.423.2.2,0,0,0-.016-.023c-.031-.049-.061-.1-.1-.146s-.031-.038-.045-.056a1.125,1.125,0,0,0-.08-.1l-.059-.061c-.026-.028-.052-.056-.08-.082l-.066-.059-.082-.073-.075-.056-.085-.063-.082-.054-.085-.054c-.028-.019-.059-.035-.089-.052l-.087-.049-.094-.047-.087-.042-.1-.045-.085-.038-.113-.042-.08-.031-.122-.042-.073-.023-.134-.042-.063-.019-.146-.04-.056-.016-.153-.038-.045-.012-.169-.038h-.028l-.249-.054q-1.542-.317-3.1-.547a6.992,6.992,0,0,0-2.566-.045,17.767,17.767,0,0,0-3.212,1.528,21.592,21.592,0,0,1-4.071,1.047,6.181,6.181,0,0,0-3.629,1.979,6.91,6.91,0,0,0-1.108,3c-1.625,8.836.127,17.9.458,26.882.129,3.5-.028,7.233-2.01,10.095l5.77-.153c.277,0,.556-.016.838-.033s.563-.038.84-.07a5.559,5.559,0,0,0,2.092-.627,3.608,3.608,0,0,0,.815-.634,8.119,8.119,0,0,0,1.585-3.017c.129-.364.258-.732.373-1.1.047-.155.092-.31.131-.47l.019-.075.066.031a14.529,14.529,0,0,0,.782,1.291,27.973,27.973,0,0,0,3.552,4.012c2.519,2.5,5.094,5.045,8.252,6.651A9.915,9.915,0,0,1,230.3,278.4c.4.43.744.981,1.31,1.129a6.513,6.513,0,0,1,1.075.15c.493.207.674.8.9,1.289s.742.986,1.23.763a2.467,2.467,0,0,0,.92,2.449,1.8,1.8,0,0,1,.6.535,1.946,1.946,0,0,1,.122.629,2.486,2.486,0,0,0,.89,1.524c-.458.758-.092,1.845-.08,2.791a10.5,10.5,0,0,1-.439,2.331,17.164,17.164,0,0,0,.188,6.921,7.52,7.52,0,0,0,1.355,3.545c.268.317.587.592.869.9a8.357,8.357,0,0,1,1.326,2.021A15.846,15.846,0,0,1,242,309.983a8.4,8.4,0,0,0,.681,2.324c.514,1.122.045,2.5.5,3.648a10.589,10.589,0,0,1,.718,1.491,6.787,6.787,0,0,1-.345,2.359c-.268,1.864,1.078,3.594,1.2,5.472a.432.432,0,0,1-.066.317c-.092.1-.249.1-.373.16-.235.113-.3.43-.373.693s-.286.561-.547.481c-3.857,2.064-7.85,3.97-11.707,6.033l-1.761.939-9.416,5.031a.681.681,0,0,0-.378.615c0,.113.014.235.023.34-.66.164-1.294.362-1.744.444-.185.035-.371.07-.554.11a.592.592,0,0,0,.085-.235.47.47,0,0,0-.416-.47,1.505,1.505,0,0,0-.678.089,9.9,9.9,0,0,1-1.643.3,11.726,11.726,0,0,0-1.97.235,2.239,2.239,0,0,0-1.526,1.174,2.848,2.848,0,0,0-.169,1.108,16.962,16.962,0,0,0,.512,4.306.366.366,0,0,0,.171.275c.082.033.181,0,.263.038a.352.352,0,0,1,.153.193,9.654,9.654,0,0,1,.592,2.873q.235,2.172.594,4.331a4.807,4.807,0,0,0,.862,2.366,3.865,3.865,0,0,0,2.47,1.141,17.234,17.234,0,0,0,5.8-.533,1.7,1.7,0,0,0,.979-.444,1.106,1.106,0,0,0,.235-.782c-.045-.965-.923-1.643-1.721-2.186l-1.089-.753a.47.47,0,0,1-.235-.531l.07-1.425h-.211a5.119,5.119,0,0,1,1.352-2.66c.509-.47,1.174-.8,1.707-1.225a4.226,4.226,0,0,0,2.373.871,19.343,19.343,0,0,1,5.376-4.46,52.582,52.582,0,0,1,4.989-2.784q2.08-1.028,4.226-1.927c2.019-.85,4.075-1.608,6.134-2.348a24.7,24.7,0,0,0,4.024-1.707c3.287-1.9,5.608-5.691,5.165-9.487-.559-4.789.636-9.78.556-14.6a14.473,14.473,0,0,0-.5-4.167,2.228,2.228,0,0,1,.279.235c.855.8,1.061,2.066,1.878,2.977.636.716,1.6,1.174,1.988,2.047.293.669.251,1.573.864,1.958.174.11.38.157.554.265a1.855,1.855,0,0,1,.514.556,6.243,6.243,0,0,1,1.394,3.052c.031.448-.012.967.317,1.27.094.087.214.15.263.268.1.235-.169.484-.216.744-.068.362.289.636.509.939a1.477,1.477,0,0,1,0,1.74c-1.925,2.5-2.272,5.869-3.956,8.543-.582.923-1.23,1.8-1.794,2.73a35.128,35.128,0,0,0-3.458,9.411,5.2,5.2,0,0,0,1.444,1.61,7.982,7.982,0,0,1-1.608,2.97,7.469,7.469,0,0,0-.531.664,1.291,1.291,0,0,0-.523-.394,18.6,18.6,0,0,0-.47,4.108,2.932,2.932,0,0,0,.864,2.477,3.065,3.065,0,0,0,.96.4l1.61.47a1.684,1.684,0,0,0,.89.087c.19-.054.359-.171.554-.209a1.359,1.359,0,0,1,.624.082l1.392.406a9.2,9.2,0,0,1,1.376.486c.4.19.763.437,1.153.648a13.924,13.924,0,0,0,2.012.826l2.4.826a8.733,8.733,0,0,0,2.08.54c.493.042.993,0,1.479.085.371.063.73.2,1.1.235a2.893,2.893,0,0,0,1.737-.516,1.552,1.552,0,0,0,.5-.453,1.794,1.794,0,0,0-.293-1.829,7.232,7.232,0,0,0-2.481-2.582c-.425-.235-.885-.409-1.324-.624-1.249-.61-2.19-1.629-3.371-2.326a.8.8,0,0,0-1.012.068,6.832,6.832,0,0,1-2.582-2.294,5.163,5.163,0,0,1-.47-1.585c.552.131,1.108.235,1.669.326A42.942,42.942,0,0,1,268.409,337.915ZM245.855,237.792c-.047.265-.1.528-.155.791-.47,2.2-1.141,4.674-2.676,6.315a5.869,5.869,0,0,1-1.733,1.143l-.171.085A37.661,37.661,0,0,1,245.855,237.792Z" transform="translate(-177.053 -185.166)"/><path class="h" d="M389.175,226.066a7.008,7.008,0,0,1,.758-2.385,5.45,5.45,0,0,1,1.11-1.174,7.4,7.4,0,0,1,2.38-1.488,2.974,2.974,0,0,1,2.7.312,3.59,3.59,0,0,1,1.186,2.481,6.109,6.109,0,0,1-.636,3.756,15.469,15.469,0,0,1-3.052,3.132,12.119,12.119,0,0,0-1.988,2.479,7.064,7.064,0,0,1-.906,1.324,1.721,1.721,0,0,1-1.439.575,2.539,2.539,0,0,1-1.174-.688c-.434-.38-1.6-1.059-1.643-1.662-.028-.488.885-1.6,1.108-2.054a23.129,23.129,0,0,0,1.6-4.608Z" transform="translate(-318.1 -186.515)"/><path class="i" d="M389.175,226.066a7.008,7.008,0,0,1,.758-2.385,5.45,5.45,0,0,1,1.11-1.174,7.4,7.4,0,0,1,2.38-1.488,2.974,2.974,0,0,1,2.7.312,3.59,3.59,0,0,1,1.186,2.481,6.109,6.109,0,0,1-.636,3.756,15.469,15.469,0,0,1-3.052,3.132,12.119,12.119,0,0,0-1.988,2.479,7.064,7.064,0,0,1-.906,1.324,1.721,1.721,0,0,1-1.439.575,2.539,2.539,0,0,1-1.174-.688c-.434-.38-1.6-1.059-1.643-1.662-.028-.488.885-1.6,1.108-2.054a23.129,23.129,0,0,0,1.6-4.608Z" transform="translate(-318.1 -186.515)"/><path class="c" d="M293,287.856a21.06,21.06,0,0,1,5.768-.7c3.247.047,6.59.833,9.681-.162a16.794,16.794,0,0,0,2.322-1.007,5.893,5.893,0,0,0,1.733-1.136c1.538-1.629,2.2-4.082,2.681-6.273a41.859,41.859,0,0,0,.73-6.677,5.1,5.1,0,0,0,2.531.667,1.835,1.835,0,0,0,1.768-1.643,26.863,26.863,0,0,0,.115,6.219c.136.812.347,1.613.42,2.434.263,2.967-1.294,5.932-.737,8.86A2.148,2.148,0,0,1,319,290.722a11.032,11.032,0,0,1-2.615.7c-1.721.439-3.223,1.533-4.951,1.941-.805.19-1.643.235-2.437.439-1.141.3-2.176.953-3.338,1.16-.871.155-1.768.049-2.648.124-.765.063-1.517.265-2.284.284a6.591,6.591,0,0,1-4.9-2.427A20.609,20.609,0,0,1,293,287.856Z" transform="translate(-246.575 -224.841)"/><path class="i" d="M293,287.856a21.06,21.06,0,0,1,5.768-.7c3.247.047,6.59.833,9.681-.162a16.794,16.794,0,0,0,2.322-1.007,5.893,5.893,0,0,0,1.733-1.136c1.538-1.629,2.2-4.082,2.681-6.273a41.859,41.859,0,0,0,.73-6.677,5.1,5.1,0,0,0,2.531.667,1.835,1.835,0,0,0,1.768-1.643,26.863,26.863,0,0,0,.115,6.219c.136.812.347,1.613.42,2.434.263,2.967-1.294,5.932-.737,8.86A2.148,2.148,0,0,1,319,290.722a11.032,11.032,0,0,1-2.615.7c-1.721.439-3.223,1.533-4.951,1.941-.805.19-1.643.235-2.437.439-1.141.3-2.176.953-3.338,1.16-.871.155-1.768.049-2.648.124-.765.063-1.517.265-2.284.284a6.591,6.591,0,0,1-4.9-2.427A20.609,20.609,0,0,1,293,287.856Z" transform="translate(-246.575 -224.841)"/><path class="j" d="M586.942,342.341a16.161,16.161,0,1,1-16.161,16.16,16.161,16.161,0,0,1,16.161-16.16m0-3.991A20.152,20.152,0,1,0,607.093,358.5,20.152,20.152,0,0,0,586.942,338.35Z" transform="translate(-456.09 -276.441)"/><rect class="j" width="4.723" height="4.972" transform="translate(127.868 57.195)"/><rect class="j" width="4.723" height="4.972" transform="matrix(0.857, 0.515, -0.515, 0.857, 141.017, 59.213)"/><rect class="j" width="4.723" height="4.972" transform="matrix(0.485, 0.875, -0.875, 0.485, 151.078, 67.354)"/><rect class="j" width="4.723" height="4.972" transform="matrix(-0.53, 0.848, -0.848, -0.53, 153.519, 92.622)"/><rect class="j" width="4.723" height="4.972" transform="matrix(-0.485, 0.875, -0.875, -0.485, 114.976, 69.763)"/><rect class="j" width="4.723" height="4.972" transform="matrix(0.53, 0.848, -0.848, 0.53, 112.403, 89.985)"/><rect class="j" width="4.723" height="4.972" transform="matrix(-0.857, 0.515, -0.515, -0.857, 123.247, 63.474)"/><rect class="j" width="4.723" height="4.972" transform="translate(127.868 101.95)"/><rect class="j" width="4.723" height="4.972" transform="matrix(0.857, -0.515, 0.515, 0.857, 138.457, 100.644)"/><rect class="j" width="4.723" height="4.972" transform="matrix(-0.857, -0.515, 0.515, -0.857, 120.687, 104.906)"/><rect class="j" width="5.719" height="4.226" transform="translate(105.493 80.07)"/><rect class="j" width="5.719" height="4.226" transform="translate(156.211 84.296) rotate(180)"/><path class="j" d="M746.862,218.431a16.161,16.161,0,1,1-16.161,16.16,16.161,16.161,0,0,1,16.161-16.16m0-3.991a20.152,20.152,0,1,0,20.152,20.151A20.152,20.152,0,0,0,746.862,214.44Z" transform="translate(-578.467 -181.62)"/><rect class="j" width="4.723" height="4.972" transform="translate(165.411 28.108)"/><rect class="j" width="4.723" height="4.972" transform="matrix(0.857, 0.515, -0.515, 0.857, 178.561, 30.122)"/><rect class="j" width="4.723" height="4.972" transform="matrix(0.485, 0.875, -0.875, 0.485, 188.622, 38.264)"/><rect class="j" width="4.723" height="4.972" transform="matrix(-0.53, 0.848, -0.848, -0.53, 191.061, 63.534)"/><rect class="j" width="4.723" height="4.972" transform="matrix(-0.485, 0.875, -0.875, -0.485, 152.517, 40.677)"/><rect class="j" width="4.723" height="4.972" transform="matrix(0.53, 0.848, -0.848, 0.53, 149.945, 60.898)"/><rect class="j" width="4.723" height="4.972" transform="matrix(-0.857, 0.515, -0.515, -0.857, 160.79, 34.384)"/><rect class="j" width="4.723" height="4.972" transform="translate(165.411 72.861)"/><rect class="j" width="4.723" height="4.972" transform="matrix(0.857, -0.515, 0.515, 0.857, 176, 71.556)"/><rect class="j" width="4.723" height="4.972" transform="matrix(-0.857, -0.515, 0.515, -0.857, 158.228, 75.816)"/><rect class="j" width="5.719" height="4.226" transform="translate(143.034 50.981)"/><rect class="j" width="5.719" height="4.226" transform="translate(193.756 55.207) rotate(180)"/><path class="j" d="M425.857,213.121h.57a16.16,16.16,0,1,1-.549,32.315c-.19,0-.38,0-.573,0a16.16,16.16,0,1,1,.552-32.315m0-3.989h0a20.15,20.15,0,1,0-.69,40.295c.235,0,.47.009.7.009a20.15,20.15,0,1,0,.688-40.295c-.235,0-.47-.009-.7-.009Z" transform="translate(-332.557 -177.554)"/><rect class="j" width="4.723" height="4.972" transform="translate(91.188 26.78) rotate(1.99)"/><rect class="j" width="4.723" height="4.972" transform="matrix(0.839, 0.544, -0.544, 0.839, 104.257, 29.248)"/><rect class="j" width="4.723" height="4.972" transform="translate(114.031 37.735) rotate(62.99)"/><rect class="j" width="4.723" height="4.972" transform="translate(115.596 63.066) rotate(123.99)"/><rect class="j" width="4.723" height="4.972" transform="matrix(-0.515, 0.857, -0.857, -0.515, 77.866, 38.887)"/><rect class="j" width="4.74" height="4.989" transform="translate(74.264 59.378) rotate(60.113)"/><rect class="j" width="4.723" height="4.972" transform="translate(86.356 32.884) rotate(150.99)"/><rect class="j" width="4.723" height="4.972" transform="translate(89.636 71.503) rotate(1.99)"/><rect class="j" width="4.723" height="4.972" transform="translate(100.265 70.57) rotate(-29.01)"/><rect class="j" width="4.723" height="4.972" transform="matrix(-0.839, -0.544, 0.544, -0.839, 82.361, 74.206)"/><rect class="j" width="5.719" height="4.226" transform="translate(68.034 48.862) rotate(1.99)"/><rect class="j" width="5.719" height="4.226" transform="translate(118.579 54.838) rotate(-178.01)"/><path class="h" d="M257.666,731.645a4.85,4.85,0,0,0-1.664.519,3.911,3.911,0,0,0-1.448,1.953,16.912,16.912,0,0,0-.972,6.1,13.124,13.124,0,0,0,.627,4.942,3.123,3.123,0,0,0,.829,1.294,2.949,2.949,0,0,0,1.134.549,3.1,3.1,0,0,0,2.657-.329,4.241,4.241,0,0,0,1.188-2.773,6.474,6.474,0,0,1,1.58-3.773c.756-.7,1.838-1.056,2.388-1.93.655-1.038.31-2.392-.108-3.547-.364-1-.9-3.031-1.944-3.543S258.755,731.448,257.666,731.645Z" transform="translate(-216.406 -576.874)"/><path class="h" d="M427.319,748.46a7.853,7.853,0,0,1-1.643,3.031c-.47.535-1.045,1.186-.8,1.85a1.655,1.655,0,0,0,.437.585c3.442,3.369,8.257,5.007,13.034,5.6a.448.448,0,0,0,.235,0c.141-.063.174-.235.193-.392a4.96,4.96,0,0,0,0-1.5A4.5,4.5,0,0,0,436.519,755a7.047,7.047,0,0,1-2.653-2.317c-.7-1.305-.4-3-1.23-4.226a4.479,4.479,0,0,0-3.1-1.6c-.411-.063-1.284-.514-1.643-.305S427.443,748.051,427.319,748.46Z" transform="translate(-347.447 -588.771)"/><path class="j" d="M248.1,731.834a.469.469,0,0,0-.416-.469,1.5,1.5,0,0,0-.678.087,9.914,9.914,0,0,1-1.643.3,11.814,11.814,0,0,0-1.974.235,2.23,2.23,0,0,0-1.528,1.174,2.909,2.909,0,0,0-.169,1.1,16.818,16.818,0,0,0,.512,4.275.371.371,0,0,0,.174.275c.082.033.181,0,.263.038a.347.347,0,0,1,.153.19,9.434,9.434,0,0,1,.594,2.855q.235,2.157.594,4.3a4.713,4.713,0,0,0,.864,2.348,3.861,3.861,0,0,0,2.472,1.132,17.414,17.414,0,0,0,5.813-.531,1.7,1.7,0,0,0,.979-.439,1.094,1.094,0,0,0,.235-.777c-.045-.958-.925-1.643-1.723-2.169l-1.1-.74a.569.569,0,0,1-.193-.174.62.62,0,0,1-.054-.352l.07-1.409a4.033,4.033,0,0,0-3.521,2.186c-.153.3-.3.657-.613.775a.81.81,0,0,1-.96-.58,2.526,2.526,0,0,1,.035-1.24c.643-3.446.493-6.989.885-10.473a2.385,2.385,0,0,1,.35-1.1C247.712,732.386,248.066,732.156,248.1,731.834Z" transform="translate(-207.31 -577.185)"/><path class="j" d="M434.037,773.942c.162.268.413.469.563.747a.632.632,0,0,1-.122.838.826.826,0,0,1-.507.052,17.161,17.161,0,0,1-9.28-4.2,6.5,6.5,0,0,1-1.136-1.247c-.3-.469-.559-1.021-1.075-1.214a18.35,18.35,0,0,0-.47,4.08,2.9,2.9,0,0,0,.864,2.46,3.091,3.091,0,0,0,.963.392l1.613.455a1.716,1.716,0,0,0,.892.087c.19-.052.359-.171.554-.207a1.372,1.372,0,0,1,.627.08l1.392.406a9.213,9.213,0,0,1,1.378.47c.4.188.765.434,1.153.643a13.8,13.8,0,0,0,2.017.819l2.451.85a8.643,8.643,0,0,0,2.085.535c.493.042.993,0,1.481.085.371.063.73.2,1.106.235a2.923,2.923,0,0,0,1.737-.514,1.571,1.571,0,0,0,.5-.448,1.773,1.773,0,0,0-.3-1.819,7.144,7.144,0,0,0-2.484-2.557c-.427-.235-.887-.409-1.326-.622-1.249-.606-2.2-1.617-3.376-2.31C434.229,771.392,433.511,773.08,434.037,773.942Z" transform="translate(-345.298 -605.93)"/><path class="h" d="M271.23,331.951a10.153,10.153,0,0,1-4.334,1.686,17.484,17.484,0,0,1-2.453.131,62.4,62.4,0,0,1-10.2-.852,12.5,12.5,0,0,0,3.207-4.991,8.2,8.2,0,0,0,.153-3.127,23.4,23.4,0,0,0-.953-3.937,27.279,27.279,0,0,0,4.313-.11c.817-.082,2.817-.826,3.521-.263.66.524.162,2.376.15,3.23v.092a10.4,10.4,0,0,0,.824,3.77A7.174,7.174,0,0,0,271.23,331.951Z" transform="translate(-216.914 -262.612)"/><path class="i" d="M272.476,323.668a8.611,8.611,0,0,1-7.043,1.08,23.406,23.406,0,0,0-.953-3.937,27.278,27.278,0,0,0,4.313-.11c.817-.082,2.817-.826,3.521-.263C272.985,320.962,272.488,322.814,272.476,323.668Z" transform="translate(-224.75 -262.574)"/><circle class="h" cx="8.592" cy="8.592" r="8.592" transform="translate(34.429 44.91)"/><path class="c" d="M288.84,385.61a3.991,3.991,0,0,1-1.937,3.449,7.653,7.653,0,0,1-2.113.74A41.7,41.7,0,0,1,272.8,391.28a6.606,6.606,0,0,1-2.545-.535,2.718,2.718,0,0,1-1.571-1.963,1.86,1.86,0,0,0-.124-.624,1.761,1.761,0,0,0-.6-.531,2.444,2.444,0,0,1-.906-2.425c-.491.218-1-.275-1.232-.761s-.411-1.073-.9-1.277a7.348,7.348,0,0,0-1.078-.15c-.566-.146-.911-.7-1.31-1.122a10.188,10.188,0,0,0-3.035-1.857c-3.162-1.594-5.74-4.12-8.264-6.6a27.454,27.454,0,0,1-3.557-3.991c-.284-.416-.54-.843-.782-1.282a36.035,36.035,0,0,1-1.981-4.533,5.213,5.213,0,0,1-.512-2.582c.012-.08.028-.16.047-.235a4.941,4.941,0,0,1,.779-1.575,6.575,6.575,0,0,1,3.521-2.895c1.5-.394,3,.082,4.529.406a11.542,11.542,0,0,0,1.538.235,14.336,14.336,0,0,0,4.782-.751l1.7-.47c.855-.235,1.282-1.268,2.146-1.448a3.012,3.012,0,0,1,1.157.059,15.965,15.965,0,0,1,5.064,1.655,8.338,8.338,0,0,1,.984.669,6.223,6.223,0,0,1,2.287,3.378c.352,1.486.021,3.073.378,4.559a10.1,10.1,0,0,0,1.751,3.334l4.2,5.991a37.229,37.229,0,0,0,3.087,4.024C284.6,380.427,288.783,382.279,288.84,385.61Z" transform="translate(-209.363 -288.631)"/><path class="h" d="M377.237,226.066a7,7,0,0,1,.756-2.385,5.448,5.448,0,0,1,1.11-1.174,7.429,7.429,0,0,1,2.38-1.488,2.974,2.974,0,0,1,2.7.312,3.591,3.591,0,0,1,1.186,2.481,6.109,6.109,0,0,1-.636,3.756,15.469,15.469,0,0,1-3.052,3.132,12.207,12.207,0,0,0-1.988,2.479,7.066,7.066,0,0,1-.906,1.324,1.721,1.721,0,0,1-1.439.575,2.55,2.55,0,0,1-1.174-.688c-.434-.38-1.606-1.059-1.643-1.662-.028-.488.885-1.6,1.108-2.054A23.285,23.285,0,0,0,377.237,226.066Z" transform="translate(-308.963 -186.515)"/><path class="j" d="M333.767,524.751c-1.08,1.993-2.263,3.935-3.226,5.986-.561,1.2-1.047,2.435-1.671,3.6-.681,1.272-1.519,2.456-2.23,3.714a42.638,42.638,0,0,0-3.712,10.273,20.464,20.464,0,0,1-7.315-2.582c-.153-.089-.3-.183-.439-.284a5.221,5.221,0,0,1-1.477-1.627,34.75,34.75,0,0,1,3.463-9.348c.566-.939,1.214-1.8,1.8-2.711,1.688-2.653,2.035-6,3.963-8.484a1.458,1.458,0,0,0,0-1.728c-.223-.289-.578-.563-.512-.92.049-.261.322-.5.216-.74-.049-.117-.169-.181-.263-.265-.329-.3-.286-.819-.315-1.263a6.107,6.107,0,0,0-1.409-3.031,1.879,1.879,0,0,0-.514-.554c-.174-.106-.38-.153-.554-.261-.615-.385-.57-1.282-.866-1.946-.385-.876-1.355-1.322-1.991-2.033-.81-.9-1.017-2.164-1.878-2.956a2.345,2.345,0,0,0-.279-.235,14.475,14.475,0,0,1,.5,4.139c.082,4.787-1.115,9.743-.554,14.5.441,3.773-1.878,7.538-5.176,9.423a24.918,24.918,0,0,1-4.029,1.7c-2.064.73-4.12,1.484-6.144,2.329q-2.146.887-4.226,1.913a53.4,53.4,0,0,0-5,2.765,19.319,19.319,0,0,0-5.383,4.432,4.843,4.843,0,0,1-3.477-1.913,13.268,13.268,0,0,1-1.9-3.606,10.009,10.009,0,0,1-.9-3.395.671.671,0,0,1,.408-.587l9.43-5,1.763-.939c3.862-2.049,7.862-3.944,11.724-5.991.261.078.47-.218.547-.469s.131-.575.376-.688c.122-.059.282-.056.373-.16a.446.446,0,0,0,.066-.312c-.124-1.878-1.472-3.585-1.2-5.437a6.593,6.593,0,0,0,.345-2.348,10.24,10.24,0,0,0-.718-1.481c-.47-1.139,0-2.51-.507-3.625a8.382,8.382,0,0,1-.681-2.31,15.689,15.689,0,0,0-1.441-4.578,8.346,8.346,0,0,0-1.326-2.007c-.284-.305-.6-.578-.873-.894a7.433,7.433,0,0,1-1.355-3.521,16.977,16.977,0,0,1-.188-6.874,9.755,9.755,0,0,0,.439-2.315c-.012-1.04-.47-2.254.254-3a2.334,2.334,0,0,1,1.056-.542,31.876,31.876,0,0,1,5.113-.939l7.876-1.031a7.154,7.154,0,0,0,2.62-.683,5.269,5.269,0,0,0,2.211-2.817c1.383,1.009,1.9,2.89,3,4.193.538.636,1.2,1.15,1.791,1.735a20.105,20.105,0,0,1,1.974,2.434,42.854,42.854,0,0,1,4.46,7.059c.613,1.315,1.087,2.686,1.575,4.05,1.923,5.369,5.057,10.466,6.357,16.015.319,1.357,1.148,2.582,1.277,3.97A7.583,7.583,0,0,1,333.767,524.751Z" transform="translate(-235.295 -385.671)"/><path class="i" d="M338.051,472.69a2.418,2.418,0,0,0-.291,1.162c.176-.869,1.371-1.35,1.448-2.209.035-.4-.038-.378-.282-.169C338.556,471.8,338.394,472.349,338.051,472.69Z" transform="translate(-280.827 -378.2)"/><path class="i" d="M352.125,487.465a1.791,1.791,0,0,0-.545.805,2.042,2.042,0,0,0-.11,1.409c.176-.082.235-.3.289-.486a3.39,3.39,0,0,1,.373-.831c.141-.235.791-.758.789-1C352.914,486.979,352.3,487.331,352.125,487.465Z" transform="translate(-291.259 -390.337)"/><path class="i" d="M268.058,356.607a8.858,8.858,0,0,1-1.812,1.207c-1.7.862-3.587,1.317-5.3,2.153a26.247,26.247,0,0,0-2.46,1.434l-5.094,3.228a5.462,5.462,0,0,0-1.122.852c-.613.653-.61,1.8-1.174,2.5a3.439,3.439,0,0,1-2.472,1.141,8.031,8.031,0,0,1-2.754-.47,14.3,14.3,0,0,1-1.573-.573,7.413,7.413,0,0,1-1.512-.864A4.314,4.314,0,0,1,241,364.4a5.564,5.564,0,0,1,.3-2.3,8.81,8.81,0,0,1,.542-1.392,5.6,5.6,0,0,1,.432-.732,8.058,8.058,0,0,1,5.226-2.817c1.047-.2,2.113-.329,3.172-.507a11.538,11.538,0,0,0,1.538.235,14.337,14.337,0,0,0,4.782-.751l1.7-.47c.855-.235,1.282-1.268,2.146-1.448a3.012,3.012,0,0,1,1.157.059,15.966,15.966,0,0,1,5.064,1.655A8.341,8.341,0,0,1,268.058,356.607Z" transform="translate(-206.772 -288.562)"/><path class="c" d="M272.208,267.35c-.218,2.078-1.972,3.6-3.052,5.4-.519.871-.883,1.826-1.35,2.728a27.043,27.043,0,0,1-1.784,2.841l-1.909,2.77a28.66,28.66,0,0,1-3.69,4.637c-2.5.425-4.6,2.282-6.968,3.183a35.707,35.707,0,0,1-5.956,1.207,8.129,8.129,0,0,0-5.223,2.817,7.374,7.374,0,0,0-.977,2.113,5.474,5.474,0,0,0-.3,2.294,4.355,4.355,0,0,0,1.777,2.817,9.833,9.833,0,0,0,3.085,1.437,8.087,8.087,0,0,0,2.754.47,3.351,3.351,0,0,0,2.474-1.141c.582-.732.554-1.848,1.174-2.5a5.48,5.48,0,0,1,1.125-.852l5.094-3.228a26.241,26.241,0,0,1,2.458-1.425c1.714-.838,3.6-1.291,5.3-2.153a6.312,6.312,0,0,0,3.627-4.162c1.038-5.77,5.031-10.635,8.451-15.4-.113-.023-.077-.279-.12-.387a4.919,4.919,0,0,0-2.5-2.521A14.806,14.806,0,0,0,272.208,267.35Z" transform="translate(-206.767 -222.109)"/><path class="j" d="M224.131,254.51a3.183,3.183,0,0,0-.355-1.812,4.058,4.058,0,0,0-2.817-1.491q-1.547-.317-3.108-.545a7.017,7.017,0,0,0-2.571-.042,17.388,17.388,0,0,0-3.216,1.517,21.961,21.961,0,0,1-4.078,1.04,6.209,6.209,0,0,0-3.634,1.967,6.805,6.805,0,0,0-1.108,2.977c-1.627,8.778.124,17.781.458,26.7.129,3.472-.028,7.184-2.012,10.036l5.777-.153a5.252,5.252,0,0,0,6.172-4.35,10.278,10.278,0,0,0,.737-2.972c.092-2.1-1.1-4.155-.7-6.219a6.931,6.931,0,0,1,2.608-3.8,22.747,22.747,0,0,0,3.5-3.118c1.733-2.19,2.064-5.183,1.848-7.965a30.372,30.372,0,0,1-.282-4.965,6.26,6.26,0,0,1,1.31-3.479A4.854,4.854,0,0,0,224.131,254.51Z" transform="translate(-176.701 -209.227)"/><path class="i" d="M223.738,254.989a3.99,3.99,0,0,0-2.77-1.479,2.73,2.73,0,0,1,1.371,1.08,3.164,3.164,0,0,1,.354,1.812,4.831,4.831,0,0,1-1.481,3.331,6.254,6.254,0,0,0-1.31,3.479,30.373,30.373,0,0,0,.282,4.965c.216,2.782-.115,5.775-1.845,7.965a23.094,23.094,0,0,1-3.5,3.118,6.922,6.922,0,0,0-2.611,3.8c-.387,2.064.8,4.122.7,6.219a10.281,10.281,0,0,1-.739,2.972,5.256,5.256,0,0,1-6.172,4.35l-4.092.108c-.092.15-.185.3-.286.444l5.777-.153a5.252,5.252,0,0,0,6.172-4.35,10.278,10.278,0,0,0,.737-2.972c.092-2.1-1.1-4.155-.7-6.219a6.931,6.931,0,0,1,2.608-3.8,22.748,22.748,0,0,0,3.5-3.118c1.733-2.19,2.064-5.183,1.848-7.965a30.371,30.371,0,0,1-.282-4.965,6.26,6.26,0,0,1,1.31-3.479,4.792,4.792,0,0,0,1.481-3.331A3.183,3.183,0,0,0,223.738,254.989Z" transform="translate(-176.662 -211.518)"/><path class="i" d="M441.291,589.18l-10.6,25.859a5.221,5.221,0,0,1-1.477-1.627,34.75,34.75,0,0,1,3.463-9.348c.566-.939,1.214-1.8,1.8-2.711,1.688-2.653,2.035-6,3.963-8.484a1.458,1.458,0,0,0,0-1.728c-.223-.289-.578-.563-.512-.92.049-.261.322-.5.216-.74-.049-.117-.169-.181-.263-.265-.329-.3-.286-.819-.315-1.263a6.107,6.107,0,0,0-1.409-3.031,1.878,1.878,0,0,0-.514-.554c-.174-.106-.38-.153-.554-.261-.615-.385-.57-1.282-.866-1.946-.385-.876-1.355-1.322-1.991-2.033-.81-.9-1.017-2.164-1.878-2.956l-.073-.183L431.1,572Z" transform="translate(-350.808 -455.239)"/></g></svg>