<svg xmlns="http://www.w3.org/2000/svg" width="194.444" height="172.094" viewBox="0 0 194.444 172.094"><defs><style>.a{fill:#3f3d56;}.b{fill:#f2f2f2;}.c{fill:#606dc3;}.d{fill:#fff;}.e{fill:#2f2e41;}.f{fill:#9f616a;}.g{fill:#d0cde1;}</style></defs><g transform="translate(0 0)"><path class="a" d="M526.289,165.861v-.42c.834,0,1.682-.017,2.518-.051l.017.419C527.982,165.844,527.129,165.861,526.289,165.861Zm-2.534-.049c-.839-.033-1.69-.083-2.53-.149l.033-.418c.834.066,1.68.116,2.513.148Zm7.6-.155-.033-.418c.833-.067,1.676-.151,2.505-.251l.05.417c-.835.1-1.684.186-2.522.253Zm-12.651-.245c-.837-.1-1.681-.218-2.51-.351l.067-.414c.823.132,1.662.25,2.493.349Zm17.683-.363-.067-.414c.823-.133,1.656-.285,2.477-.452l.084.411C538.053,164.763,537.214,164.916,536.385,165.05Zm-22.687-.441c-.826-.167-1.658-.354-2.474-.553l.1-.408c.81.2,1.637.383,2.457.549Zm27.654-.57-.1-.407c.813-.2,1.631-.419,2.432-.651l.117.4c-.807.234-1.631.454-2.449.655Zm-32.577-.636c-.809-.234-1.624-.487-2.421-.752l.133-.4c.792.264,1.6.515,2.4.747Zm37.445-.774-.133-.4c.792-.265,1.59-.549,2.371-.846l.149.392c-.787.3-1.59.586-2.388.852Zm-42.261-.829c-.787-.3-1.58-.617-2.357-.948l.164-.386c.772.329,1.56.646,2.342.942Zm46.993-.968-.165-.386c.767-.328,1.538-.675,2.289-1.033l.18.379C552.5,160.152,551.725,160.5,550.952,160.832Zm-51.667-1.023c-.762-.362-1.527-.744-2.272-1.135l.2-.371c.74.389,1.5.768,2.256,1.128Zm56.234-1.149-.2-.371c.739-.389,1.48-.8,2.2-1.215l.21.363c-.726.42-1.471.831-2.215,1.223Zm-60.728-1.213c-.731-.423-1.462-.865-2.171-1.314l.225-.355c.7.446,1.43.886,2.157,1.306Zm65.109-1.322-.225-.355c.7-.446,1.409-.913,2.1-1.388l.238.345c-.693.479-1.4.949-2.111,1.4Zm-69.4-1.393c-.694-.48-1.386-.979-2.058-1.484l.252-.335c.667.5,1.355,1,2.044,1.474Zm73.561-1.487-.253-.335c.665-.5,1.332-1.023,1.98-1.553l.266.325c-.653.533-1.324,1.059-1.994,1.563Zm-77.615-1.563c-.652-.532-1.3-1.085-1.931-1.644l.278-.314c.626.554,1.271,1.1,1.918,1.632Zm81.537-1.643-.278-.314c.625-.554,1.248-1.129,1.85-1.707l.291.3c-.607.582-1.233,1.16-1.863,1.718Zm-85.332-1.72c-.605-.582-1.209-1.184-1.793-1.792l.3-.291c.58.6,1.18,1.2,1.781,1.78Zm88.988-1.79-.3-.291c.579-.6,1.153-1.224,1.709-1.85l.314.279c-.559.63-1.138,1.257-1.72,1.862Zm-92.5-1.863c-.56-.631-1.112-1.28-1.643-1.929l.325-.266c.527.645,1.076,1.29,1.632,1.916Zm95.864-1.929-.325-.266c.53-.648,1.054-1.315,1.556-1.982l.335.252c-.505.671-1.033,1.342-1.566,1.995Zm-99.072-1.992c-.506-.672-1-1.362-1.483-2.053l.345-.239c.475.686.97,1.372,1.473,2.039Zm102.123-2.06-.345-.239c.477-.689.945-1.4,1.392-2.1l.355.225c-.449.71-.921,1.421-1.4,2.115Zm-105-2.1c-.45-.709-.891-1.437-1.313-2.164l.363-.21c.418.722.857,1.445,1.3,2.15ZM580.776,134.4l-.363-.21c.42-.726.83-1.469,1.219-2.208l.371.2C581.613,132.922,581.2,133.67,580.776,134.4Zm-110.258-2.2c-.391-.742-.772-1.5-1.133-2.262l.379-.18c.359.753.738,1.509,1.126,2.246Zm112.623-2.3-.379-.18c.359-.756.708-1.53,1.037-2.3l.386.165c-.332.776-.682,1.555-1.043,2.316Zm-114.8-2.27c-.331-.773-.649-1.562-.947-2.344l.392-.149c.3.777.612,1.56.94,2.328Zm116.791-2.4-.393-.149c.3-.785.583-1.585.847-2.378l.4.133c-.267.8-.554,1.6-.852,2.394Zm-118.591-2.328c-.267-.8-.522-1.612-.756-2.42l.4-.117c.233.8.485,1.611.751,2.4Zm120.2-2.487-.4-.116c.232-.8.45-1.619.65-2.432l.407.1C587.193,118.789,586.973,119.614,586.74,120.42Zm-121.609-2.381c-.2-.817-.389-1.649-.557-2.473l.411-.084c.167.818.353,1.645.553,2.456ZM587.949,115.5l-.411-.084c.166-.817.318-1.651.451-2.477l.414.067c-.135.832-.286,1.671-.454,2.494Zm-123.832-2.425c-.135-.829-.254-1.673-.356-2.51l.417-.05c.1.831.22,1.67.353,2.493Zm124.639-2.58-.417-.05c.1-.831.184-1.674.25-2.505l.418.033c-.066.837-.152,1.686-.253,2.522Zm-125.249-2.451c-.068-.838-.119-1.69-.154-2.53l.419-.017c.034.835.085,1.681.152,2.513Zm125.651-2.6-.419-.017c.033-.836.05-1.683.05-2.517v-.139h.42v.138c0,.84-.017,1.693-.05,2.535ZM463.72,102.977h-.42v-.07c0-.819.016-1.648.047-2.463l.419.016c-.031.81-.047,1.634-.047,2.448Zm125.014-2.725c-.035-.833-.087-1.679-.155-2.513L589,97.7c.069.84.121,1.691.156,2.53Zm-124.82-2.306-.418-.033c.066-.84.15-1.689.249-2.522l.417.05C464.063,96.268,463.979,97.111,463.914,97.946Zm124.408-2.712c-.1-.828-.221-1.666-.356-2.492l.414-.068c.136.832.257,1.676.358,2.509ZM464.509,92.947l-.414-.066c.133-.831.285-1.67.451-2.494l.411.083c-.165.818-.316,1.652-.448,2.478Zm123-2.682c-.168-.82-.356-1.646-.556-2.456l.407-.1c.2.815.39,1.647.56,2.472Zm-122-2.254-.408-.1c.2-.817.419-1.641.652-2.45l.4.116C465.921,86.381,465.7,87.2,465.5,88.011ZM586.3,85.378c-.234-.8-.487-1.61-.753-2.4l.4-.134c.268.8.523,1.612.758,2.419ZM466.9,83.173l-.4-.132c.266-.8.552-1.6.85-2.4l.393.148c-.3.785-.581,1.586-.845,2.379Zm117.8-2.567c-.3-.781-.615-1.564-.943-2.327l.386-.165c.33.769.649,1.557.949,2.343ZM468.683,78.452l-.386-.164c.33-.775.68-1.555,1.041-2.317l.379.18c-.359.757-.707,1.531-1.034,2.3Zm114.032-2.461c-.359-.752-.739-1.508-1.128-2.245l.371-.2c.392.742.774,1.5,1.136,2.26Zm-111.871-2.1-.372-.195c.391-.746.8-1.494,1.225-2.224l.364.21c-.419.725-.828,1.468-1.217,2.209Zm109.526-2.346c-.42-.722-.859-1.445-1.306-2.148l.354-.225c.45.708.892,1.436,1.315,2.163Zm-107-2.02-.355-.224c.45-.712.921-1.424,1.4-2.117l.345.238c-.476.688-.943,1.4-1.39,2.1ZM577.671,67.3c-.476-.686-.972-1.372-1.475-2.038l.335-.253c.506.671,1.006,1.361,1.485,2.051ZM476.228,65.38l-.336-.252c.506-.673,1.032-1.345,1.564-2l.325.265c-.529.647-1.052,1.315-1.554,1.984Zm98.411-2.091c-.529-.646-1.079-1.29-1.634-1.914l.314-.279c.559.628,1.112,1.277,1.645,1.927Zm-95.226-1.812L479.1,61.2c.557-.63,1.135-1.257,1.718-1.864l.3.291c-.579.6-1.154,1.227-1.707,1.852Zm91.882-1.95c-.581-.6-1.181-1.2-1.783-1.778l.29-.3c.606.581,1.21,1.183,1.795,1.79Zm-88.4-1.684-.291-.3c.606-.583,1.232-1.161,1.861-1.72l.279.314c-.625.555-1.247,1.13-1.849,1.709Zm84.76-1.8c-.627-.554-1.273-1.1-1.92-1.63l.265-.325c.651.531,1.3,1.083,1.933,1.641Zm-81-1.542-.266-.325c.651-.533,1.321-1.06,1.992-1.565l.253.335c-.666.5-1.332,1.025-1.978,1.555Zm77.092-1.64c-.67-.5-1.358-1-2.045-1.472l.238-.346c.692.477,1.385.976,2.059,1.482Zm-73.075-1.389-.239-.345c.692-.479,1.4-.95,2.11-1.4l.225.354C492.071,50.527,491.366,51,490.679,51.471ZM559.6,50c-.708-.447-1.434-.885-2.158-1.3l.21-.364c.729.421,1.46.862,2.173,1.312Zm-64.681-1.224-.211-.363c.726-.421,1.471-.833,2.214-1.225l.2.371C496.384,47.948,495.644,48.358,494.924,48.776Zm60.314-1.3c-.741-.388-1.5-.767-2.258-1.125l.18-.379c.762.361,1.527.742,2.273,1.133Zm-55.869-1.049-.181-.379c.757-.361,1.532-.711,2.3-1.042l.165.386c-.767.328-1.537.677-2.289,1.035Zm51.31-1.109c-.771-.328-1.56-.643-2.343-.939l.148-.393c.788.3,1.582.616,2.358.946Zm-46.693-.868-.15-.392c.785-.3,1.588-.587,2.386-.855l.133.4C505.562,43.872,504.765,44.157,503.985,44.455Zm41.971-.915c-.793-.263-1.6-.513-2.406-.744l.116-.4c.808.232,1.623.484,2.422.749Zm-37.2-.686-.117-.4c.807-.235,1.631-.456,2.448-.659l.1.407C510.378,42.4,509.56,42.62,508.758,42.853Zm32.358-.7c-.81-.2-1.637-.382-2.458-.547l.083-.411c.826.166,1.659.351,2.474.55Zm-27.471-.505-.084-.411c.823-.168,1.661-.323,2.493-.458l.068.414C515.3,41.324,514.463,41.478,513.645,41.645Zm22.535-.488c-.825-.132-1.664-.248-2.494-.346l.049-.417c.835.1,1.68.216,2.511.349Zm-17.566-.322-.051-.417c.835-.1,1.683-.188,2.522-.256l.034.418c-.833.068-1.675.153-2.5.254Zm12.567-.271c-.832-.065-1.678-.114-2.514-.146l.016-.419c.841.032,1.693.081,2.53.147Zm-7.549-.137-.017-.419c.839-.035,1.692-.053,2.534-.054v.42C525.313,40.375,524.466,40.393,523.633,40.427Z" transform="translate(-394.764 -39.953)"/><rect class="b" width="107.665" height="132.441" transform="translate(13.728 36.772)"/><rect class="c" width="107.665" height="14.756" transform="translate(13.728 29.485)"/><rect class="a" width="132.623" height="34.146" transform="translate(3.847 134.171)"/><circle class="c" cx="9.291" cy="9.291" r="9.291" transform="translate(10.405 141.901)"/><rect class="d" width="38.439" height="2.733" transform="translate(39.189 143.359)"/><rect class="d" width="84.711" height="2.733" transform="translate(39.189 149.917)"/><rect class="d" width="84.711" height="2.733" transform="translate(39.189 156.475)"/><circle class="c" cx="9.291" cy="9.291" r="9.291" transform="translate(19.467 56.447)"/><rect class="d" width="31.826" height="2.733" transform="translate(45.518 59.179)"/><rect class="d" width="70.137" height="2.733" transform="translate(45.518 65.737)"/><rect class="d" width="70.137" height="2.733" transform="translate(45.518 72.296)"/><circle class="c" cx="9.291" cy="9.291" r="9.291" transform="translate(19.467 99.144)"/><rect class="d" width="31.826" height="2.733" transform="translate(45.518 101.877)"/><rect class="d" width="70.137" height="2.733" transform="translate(45.518 108.435)"/><rect class="d" width="70.137" height="2.733" transform="translate(45.518 114.993)"/><rect class="d" width="13.845" height="2.004" transform="translate(16.461 32.4)"/><rect class="d" width="13.845" height="2.004" transform="translate(16.461 35.861)"/><rect class="d" width="13.845" height="2.004" transform="translate(16.461 39.322)"/><rect class="a" width="0.42" height="28.367" transform="translate(12.111 106.868)"/><circle class="a" cx="4.012" cy="4.012" r="4.012" transform="translate(8.31 102.856)"/><path class="a" d="M149.02,591.082s-.573-12.326-12.321-10.893" transform="translate(-136.699 -466.731)"/><path class="e" d="M678.56,421.211l-4.79,9.027s-34.633,6.632-30.212,16.948,9.4,25.422,11.974,25.054,16.764-8.474,17.317-10.869-12.711-13.632-12.711-13.632L682.06,443.5s3.132,14.738-.921,24.87-6.448,37.581-3.684,37.949,9.764,2.579,12.9.553,4.605-46.424,4.605-46.424,6.632-29.107,2.579-32.423S678.56,421.211,678.56,421.211Z" transform="translate(-536.887 -341.205)"/><path class="e" d="M811.655,801.185s-4.233-2.228-5.124-.446c0,0,.668,5.347-2.005,6.016s-3.788,5.347,0,5.793,6.238-.891,7.575-.891,0-4.679,0-4.679Z" transform="translate(-662.456 -640.545)"/><path class="e" d="M723.034,627.652s-4.608-1.285-5.1.645c0,0,1.781,5.086-.691,6.3s-2.575,6.026,1.222,5.663,5.91-2.187,7.217-2.469-.987-4.574-.987-4.574Z" transform="translate(-594.025 -503.994)"/><path class="f" d="M855.882,264.313s.184,6.816-1.105,7.369,7.185,3.869,7.185,3.869l1.474-2.579s-1.658-9.211-1.289-9.948S855.882,264.313,855.882,264.313Z" transform="translate(-703.985 -216.085)"/><circle class="e" cx="11.295" cy="11.295" r="11.295" transform="translate(143.675 27.187)"/><circle class="e" cx="4.674" cy="4.674" r="4.674" transform="translate(151.076 23.234)"/><path class="e" d="M845.544,143.281a4.674,4.674,0,0,1,4.187-4.649,4.724,4.724,0,0,0-.487-.025,4.674,4.674,0,1,0,.487,9.323A4.674,4.674,0,0,1,845.544,143.281Z" transform="translate(-696.026 -117.905)"/><circle class="f" cx="7.737" cy="7.737" r="7.737" transform="translate(146.923 36.253)"/><path class="g" d="M814.309,295.862s-6.632,2.026-9.948,0-11.237,3.869-12.527,6.448,4.79,5.158,4.79,5.158-1.736,4.98-1.382,7.461a41.962,41.962,0,0,1-.276,7.829s16.275,10.723,19.9,5.9c.553-.737,5.158-18.054,5.158-18.054l6.448-6.448s-4.053-5.9-6.448-6.448A52.029,52.029,0,0,1,814.309,295.862Z" transform="translate(-654.215 -241.831)"/><path class="f" d="M648.829,477.835s-12.527,6.448-9.948,8.29,13.08-7.185,13.08-7.185Z" transform="translate(-533.224 -385.947)"/><path class="f" d="M897.334,446.818s-5.574-3.763-6.471-1.882,6.1,6.119,7.577,4.461S897.334,446.818,897.334,446.818Z" transform="translate(-732.542 -359.536)"/><path class="g" d="M920.785,327.278,924.1,329.3s11.237,15.475,7.369,18.975-13.817,10.5-13.817,10.5-3.316-4.79-2.211-4.974,9.948-7.553,9.948-7.553l-7.737-14.369Z" transform="translate(-751.848 -266.984)"/><path class="g" d="M708.014,323.766l-2.395.921-6.264,11.237L682.775,356s2.211,3.5,4.053,2.763,15.659-16.211,15.659-16.211l9.027-14Z" transform="translate(-568.183 -264.209)"/><ellipse class="e" cx="7.79" cy="4.674" rx="7.79" ry="4.674" transform="translate(147.181 30.124)"/></g></svg>