<svg xmlns="http://www.w3.org/2000/svg" xmlns:xlink="http://www.w3.org/1999/xlink" width="219.438" height="164.136" viewBox="0 0 219.438 164.136"><defs><style>.a,.d,.f,.g{fill:#606dc3;}.a,.i,.u{opacity:0.1;}.b{fill:#e8e9ed;}.c,.e{fill:#3acc6c;}.c,.d,.m{opacity:0.5;}.e,.f,.l{opacity:0.8;}.h{fill:#f3f5f7;}.j{fill:none;stroke:#535461;stroke-miterlimit:10;stroke-width:2px;}.k{opacity:0.25;}.n{fill:#fff;}.o{fill:#ffd037;}.p{fill:#65617d;}.q{fill:#9d9cb5;}.r{fill:url(#a);}.s{fill:url(#b);}.t{fill:url(#c);}.v{fill:url(#d);}.w{fill:url(#e);}.x{fill:url(#f);}.y{fill:url(#g);}.z{fill:url(#h);}.aa{fill:url(#i);}.ab{fill:url(#j);}.ac{fill:url(#k);}.ad{fill:url(#l);}.ae{fill:url(#m);}.af{fill:url(#n);}.ag{fill:url(#o);}.ah{fill:url(#p);}.ai{fill:url(#q);}.aj{fill:url(#r);}.ak{fill:url(#s);}.al{fill:url(#t);}.am{fill:url(#u);}.an{fill:url(#v);}.ao{fill:url(#w);}.ap{fill:url(#x);}.aq{fill:url(#y);}.ar{fill:url(#z);}.as{fill:url(#aa);}.at{fill:url(#ab);}.au{fill:url(#ac);}.av{fill:url(#ad);}.aw{fill:url(#ae);}.ax{fill:url(#af);}.ay{fill:url(#ag);}.az{fill:url(#ah);}.ba{fill:url(#ai);}.bb{fill:#efb7b9;}.bc{fill:#444053;}.bd{fill:#e3787d;}</style><linearGradient id="a" x1="0.5" y1="1" x2="0.5" gradientUnits="objectBoundingBox"><stop offset="0" stop-color="gray" stop-opacity="0.251"/><stop offset="0.54" stop-color="gray" stop-opacity="0.122"/><stop offset="1" stop-color="gray" stop-opacity="0.102"/></linearGradient><linearGradient id="b" x1="0.5" y1="1" x2="0.5" y2="-0.001" xlink:href="#a"/><linearGradient id="c" x1="0.499" y1="1" x2="0.499" y2="-0.001" xlink:href="#a"/><linearGradient id="d" x1="0.5" y1="1" x2="0.5" y2="0" xlink:href="#a"/><linearGradient id="e" x1="0.5" y1="1" x2="0.5" y2="0" xlink:href="#a"/><linearGradient id="f" x1="0.5" y1="1" x2="0.5" y2="0" xlink:href="#a"/><linearGradient id="g" x1="0.5" y1="0.995" x2="0.5" y2="0" xlink:href="#a"/><linearGradient id="h" x1="0.5" y1="0.999" x2="0.5" y2="0.001" xlink:href="#a"/><linearGradient id="i" x1="0.5" y1="0.998" x2="0.5" y2="0" xlink:href="#a"/><linearGradient id="j" x1="0.5" y1="1" x2="0.5" y2="0" xlink:href="#a"/><linearGradient id="k" x1="0.5" y1="1" x2="0.5" y2="0" xlink:href="#a"/><linearGradient id="l" x1="0.5" y1="1" x2="0.5" y2="0" xlink:href="#a"/><linearGradient id="m" x1="0.5" y1="0.999" x2="0.5" y2="-0.001" xlink:href="#a"/><linearGradient id="n" x1="0.5" y1="1" x2="0.5" y2="0" xlink:href="#a"/><linearGradient id="o" x1="0.5" y1="1" x2="0.5" y2="-0.002" xlink:href="#a"/><linearGradient id="p" x1="0.5" y1="0.998" x2="0.5" y2="-0.002" xlink:href="#a"/><linearGradient id="q" x1="0.498" y1="1" x2="0.498" y2="0" xlink:href="#a"/><linearGradient id="r" x1="0.499" y1="0.999" x2="0.499" y2="-0.002" xlink:href="#a"/><linearGradient id="s" x1="0.5" y1="1" x2="0.5" y2="0.001" xlink:href="#a"/><linearGradient id="t" x1="0.5" y1="1" x2="0.5" y2="0" xlink:href="#a"/><linearGradient id="u" x1="0.498" y1="1.001" x2="0.498" y2="0" xlink:href="#a"/><linearGradient id="v" x1="0.498" y1="1" x2="0.498" y2="0" xlink:href="#a"/><linearGradient id="w" x1="0.511" y1="1.001" x2="0.511" y2="0" xlink:href="#a"/><linearGradient id="x" x1="0.5" y1="1.001" x2="0.5" y2="0.006" xlink:href="#a"/><linearGradient id="y" x1="0.5" y1="1" x2="0.5" y2="0" xlink:href="#a"/><linearGradient id="z" x1="0.5" y1="0.984" x2="0.5" y2="0" xlink:href="#a"/><linearGradient id="aa" x1="0.5" y1="1" x2="0.5" y2="0" xlink:href="#a"/><linearGradient id="ab" x1="0.5" y1="1" x2="0.5" y2="0" xlink:href="#a"/><linearGradient id="ac" x1="0.497" y1="1" x2="0.497" y2="0" xlink:href="#a"/><linearGradient id="ad" x1="0.499" y1="1" x2="0.499" y2="0" xlink:href="#a"/><linearGradient id="ae" x1="0.5" y1="0.999" x2="0.5" y2="-0.001" xlink:href="#a"/><linearGradient id="af" x1="0.501" y1="1" x2="0.501" y2="0" xlink:href="#a"/><linearGradient id="ag" x1="0.501" y1="1" x2="0.501" y2="0" xlink:href="#a"/><linearGradient id="ah" x1="0.5" y1="1.001" x2="0.5" y2="0" xlink:href="#a"/><linearGradient id="ai" x1="0.5" y1="1.001" x2="0.5" y2="0.001" xlink:href="#a"/></defs><g transform="translate(0 -0.001)"><path class="a" d="M209.514,75.839c-13.373-.463-26.109-4.781-38.272-9.5s-24.208-9.964-37.261-12.458c-8.4-1.612-18-1.839-24.76,2.663-6.507,4.331-8.614,11.815-9.745,18.745-.851,5.219-1.351,10.714.979,15.6,1.62,3.393,4.492,6.244,6.48,9.492,6.916,11.309,2.027,25.252-5.465,36.292-3.513,5.178-7.594,10.125-10.307,15.631s-3.967,11.829-1.593,17.454c2.351,5.579,7.957,9.761,14.03,12.706,12.334,5.982,26.862,7.693,41.038,8.664,31.372,2.145,62.91,1.217,94.365.285,11.641-.343,23.332-.692,34.784-2.492,6.36-1,12.925-2.587,17.543-6.418,5.86-4.862,7.313-13.094,3.385-19.192-6.587-10.226-24.8-12.765-29.405-23.739-2.533-6.042.068-12.77,3.752-18.371,7.9-12.02,21.144-22.564,21.841-36.3.479-9.435-5.887-18.884-15.731-23.349-10.317-4.68-24.626-4.091-32.234,3.653C235.1,73.18,221.319,76.25,209.514,75.839Z" transform="translate(-84.325 -52.82)"/><rect class="b" width="53.622" height="53.622" transform="translate(0 25.515)"/><rect class="b" width="53.622" height="53.622" transform="translate(165.816 25.515)"/><path class="c" d="M189.446,82.6l-.535-.548a.112.112,0,0,0-.085-.037.107.107,0,0,0-.085.037l-3.7,3.719L183.7,84.431a.116.116,0,0,0-.169,0l-.539.539a.12.12,0,0,0,0,.174l1.7,1.7a.531.531,0,0,0,.353.174.562.562,0,0,0,.353-.167h0l4.056-4.068a.13.13,0,0,0,0-.174Z" transform="translate(-159.405 -75.986)"/><path class="d" d="M174.528,64.439a5.453,5.453,0,1,1-3.86,1.6,5.453,5.453,0,0,1,3.86-1.6m0-.849a6.3,6.3,0,1,0,4.462,1.846A6.308,6.308,0,0,0,174.528,63.59Z" transform="translate(-147.718 -61.364)"/><path class="e" d="M383.42,167.355l-.674-.69a.14.14,0,0,0-.105-.045.136.136,0,0,0-.107.045l-4.655,4.69-1.7-1.694a.145.145,0,0,0-.105-.045.149.149,0,0,0-.107.045l-.68.68a.149.149,0,0,0,0,.217l2.137,2.132a.669.669,0,0,0,.446.217.709.709,0,0,0,.442-.207h0l5.1-5.133a.163.163,0,0,0,0-.207Z" transform="translate(-311.965 -143.105)"/><path class="f" d="M364.631,144.478a6.87,6.87,0,1,1-4.86,2.013,6.87,6.87,0,0,1,4.86-2.013m0-1.068a7.941,7.941,0,1,0,7.941,7.941A7.941,7.941,0,0,0,364.631,143.41Z" transform="translate(-297.245 -124.691)"/><path class="d" d="M977.018,64.439a5.453,5.453,0,1,1-3.86,1.6,5.453,5.453,0,0,1,3.86-1.6m0-.849a6.3,6.3,0,1,0,4.462,1.846,6.308,6.308,0,0,0-4.462-1.846Z" transform="translate(-784.392 -61.364)"/><path class="f" d="M773.02,144.478a6.861,6.861,0,1,0,.01,0m0-1.068a7.956,7.956,0,1,1-.01,0Z" transform="translate(-621.259 -124.691)"/><path class="g" d="M558.019,204.133a9.079,9.079,0,1,1-6.426,2.659,9.079,9.079,0,0,1,6.426-2.659m0-1.413a10.5,10.5,0,1,0,10.5,10.5,10.5,10.5,0,0,0-10.5-10.5Z" transform="translate(-448.645 -171.746)"/><rect class="h" width="59.757" height="59.757" transform="translate(37.507 39.57)"/><rect class="h" width="59.757" height="59.757" transform="translate(121.883 39.57)"/><rect class="i" width="19.931" height="2.215" transform="translate(5.358 35.034)"/><rect class="i" width="19.931" height="2.215" transform="translate(175.466 35.034)"/><path class="j" d="M770.19,586.157s5.178-9.172,12.976-11.815a15.958,15.958,0,0,0,8.083-6.046,27,27,0,0,0,2.384-4.3" transform="translate(-625.305 -458.376)"/><path class="g" d="M888.077,541.04c-.889.862-5.027,1.754-5.027,1.754s1.017-4.11,1.905-4.974a2.242,2.242,0,0,1,3.122,3.219Z" transform="translate(-714.845 -437.104)"/><path class="g" d="M876.216,574.8c-1.215.242-5.166-1.258-5.166-1.258s3.085-2.893,4.3-3.139a2.242,2.242,0,0,1,.872,4.4Z" transform="translate(-705.325 -463.426)"/><path class="g" d="M840.1,614.1c-1.169-.413-3.829-3.7-3.829-3.7s4.133-.944,5.3-.539A2.242,2.242,0,0,1,840.1,614.1Z" transform="translate(-677.731 -494.681)"/><path class="g" d="M800.1,636.138c-1.223-.207-4.4-3-4.4-3s3.909-1.626,5.131-1.426a2.242,2.242,0,1,1-.729,4.424Z" transform="translate(-645.544 -512.085)"/><path class="g" d="M854.3,561.58c0,1.24,2.24,4.829,2.24,4.829s2.24-3.589,2.24-4.827a2.242,2.242,0,0,0-4.484,0Z" transform="translate(-692.036 -454.678)"/><path class="g" d="M809.995,585.819c.37,1.182,3.583,3.938,3.583,3.938s1.066-4.1.7-5.277A2.242,2.242,0,0,0,810,585.819Z" transform="translate(-656.804 -473.376)"/><path class="g" d="M771.192,619.133c.165,1.227,2.864,4.486,2.864,4.486s1.744-3.856,1.581-5.083a2.242,2.242,0,0,0-4.445.6Z" transform="translate(-626.084 -500.101)"/><path class="k" d="M888.077,541.04c-.889.862-5.027,1.754-5.027,1.754s1.017-4.11,1.905-4.974a2.242,2.242,0,0,1,3.122,3.219Z" transform="translate(-714.845 -437.104)"/><path class="k" d="M876.216,574.8c-1.215.242-5.166-1.258-5.166-1.258s3.085-2.893,4.3-3.139a2.242,2.242,0,0,1,.872,4.4Z" transform="translate(-705.325 -463.426)"/><path class="k" d="M840.1,614.1c-1.169-.413-3.829-3.7-3.829-3.7s4.133-.944,5.3-.539A2.242,2.242,0,0,1,840.1,614.1Z" transform="translate(-677.731 -494.681)"/><path class="k" d="M800.1,636.138c-1.223-.207-4.4-3-4.4-3s3.909-1.626,5.131-1.426a2.242,2.242,0,1,1-.729,4.424Z" transform="translate(-645.544 -512.085)"/><path class="k" d="M854.3,561.58c0,1.24,2.24,4.829,2.24,4.829s2.24-3.589,2.24-4.827a2.242,2.242,0,0,0-4.484,0Z" transform="translate(-692.036 -454.678)"/><path class="k" d="M809.995,585.819c.37,1.182,3.583,3.938,3.583,3.938s1.066-4.1.7-5.277A2.242,2.242,0,0,0,810,585.819Z" transform="translate(-656.804 -473.376)"/><path class="k" d="M771.192,619.133c.165,1.227,2.864,4.486,2.864,4.486s1.744-3.856,1.581-5.083a2.242,2.242,0,0,0-4.445.6Z" transform="translate(-626.084 -500.101)"/><path class="j" d="M771.63,556.1s1.019-10.482,7.075-16.059a15.976,15.976,0,0,0,4.94-8.809,26.917,26.917,0,0,0,.44-4.889" transform="translate(-626.447 -428.497)"/><path class="g" d="M833.733,497.422c-.463,1.149-3.885,3.641-3.885,3.641s-.738-4.168-.275-5.317a2.242,2.242,0,0,1,4.159,1.676Z" transform="translate(-672.298 -403.11)"/><path class="g" d="M834.4,531.244c-1.012.713-5.238.946-5.238.946s1.653-3.9,2.659-4.612a2.242,2.242,0,0,1,2.579,3.666Z" transform="translate(-672.09 -429.186)"/><path class="g" d="M813.388,581.876c-1.24.1-5-1.829-5-1.829s3.389-2.535,4.622-2.639a2.242,2.242,0,1,1,.376,4.468Z" transform="translate(-655.612 -469.007)"/><path class="g" d="M786.968,617.962c-1.2.31-5.238-.959-5.238-.959s2.913-3.07,4.112-3.382a2.242,2.242,0,1,1,1.126,4.34Z" transform="translate(-634.461 -497.686)"/><path class="g" d="M806.85,531.8c.5,1.132,4,3.513,4,3.513s.6-4.19.1-5.323a2.243,2.243,0,0,0-4.1,1.816Z" transform="translate(-654.237 -430.336)"/><path class="g" d="M776.15,571.89c.827.93,4.872,2.149,4.872,2.149s-.686-4.178-1.5-5.108a2.242,2.242,0,0,0-3.37,2.959Z" transform="translate(-629.591 -461.682)"/><path class="g" d="M754.169,618.084c.647,1.056,4.436,2.942,4.436,2.942s.033-4.234-.62-5.29a2.242,2.242,0,0,0-3.821,2.347Z" transform="translate(-612.328 -498.574)"/><rect class="i" width="19.931" height="2.215" transform="translate(45.22 52.325)"/><rect class="i" width="11.9" height="2.215" transform="translate(81.948 71.795)"/><rect class="i" width="17.621" height="2.215" transform="translate(81.948 86.66)"/><rect class="i" width="19.931" height="2.215" transform="translate(45.22 60.131)"/><rect class="i" width="19.931" height="2.215" transform="translate(134.911 52.325)"/><rect class="i" width="19.931" height="2.215" transform="translate(134.911 60.131)"/><path class="g" d="M584.66,243.4l.558-.731a2.893,2.893,0,0,0,2.008.827c.942,0,1.641-.461,1.641-1.207,0-.81-.669-1.343-2.525-1.343V240.1c1.653,0,2.273-.543,2.273-1.26,0-.649-.556-1.054-1.38-1.054a2.657,2.657,0,0,0-1.727.707l-.593-.707a3.614,3.614,0,0,1,2.366-.919c1.428,0,2.48.686,2.48,1.889,0,.847-.62,1.4-1.513,1.707v.045a1.973,1.973,0,0,1,1.758,1.831c0,1.306-1.24,2.089-2.7,2.089A3.584,3.584,0,0,1,584.66,243.4Z" transform="translate(-478.111 -198.84)"/><g class="l" transform="translate(148.923 23.18)"><path class="g" d="M793.228,167.339c0-.4.035-.9.056-1.3h-.052c-.227.351-.486.7-.717,1.05l-1.653,2.12h4.389v.853H789.73v-.723l3.3-4.339h1.213v6.9h-1.01Z" transform="translate(-789.73 -165)"/></g><g class="m" transform="translate(190.479 6.313)"><path class="g" d="M990.85,87.777l.374-.51a1.944,1.944,0,0,0,1.353.556,1.074,1.074,0,0,0,1.188-1.048c0-.651-.461-1-1.145-1a1.75,1.75,0,0,0-.975.287l-.388-.25.157-2.44h2.893v.672H992.1l-.122,1.337a2.033,2.033,0,0,1,.857-.182,1.526,1.526,0,0,1,1.721,1.566,1.753,1.753,0,0,1-1.882,1.709A2.54,2.54,0,0,1,990.85,87.777Z" transform="translate(-990.85 -83.37)"/></g><rect class="a" width="73.867" height="73.867" transform="translate(71.733 58.542)"/><rect class="n" width="73.867" height="73.867" transform="translate(74.212 55.03)"/><rect class="d" width="58.393" height="2.215" transform="translate(81.948 63.212)"/><rect class="i" width="37.183" height="2.215" transform="translate(81.948 79.228)"/><rect class="i" width="36.077" height="2.215" transform="translate(81.948 94.095)"/><rect class="i" width="49.179" height="2.215" transform="translate(81.948 101.527)"/><path class="c" d="M684.632,436.129l-.254-.262a.062.062,0,0,0-.041-.017.056.056,0,0,0-.039.017l-1.763,1.777-.643-.643a.066.066,0,0,0-.041-.017.06.06,0,0,0-.039.017l-.258.258a.058.058,0,0,0,0,.083l.81.808a.215.215,0,0,0,.337,0h0l1.932-1.94A.066.066,0,0,0,684.632,436.129Z" transform="translate(-554.969 -356.705)"/><path class="c" d="M677.519,427.453a2.6,2.6,0,1,1-1.839.762,2.6,2.6,0,0,1,1.839-.762m0-.4a3.006,3.006,0,1,0,3,3.005,3.006,3.006,0,0,0-3-3.005Z" transform="translate(-549.395 -349.723)"/><path class="c" d="M684.632,508.077l-.254-.26a.054.054,0,0,0-.041-.017.05.05,0,0,0-.039.017l-1.763,1.775-.643-.641a.058.058,0,0,0-.041-.019.054.054,0,0,0-.039.019l-.258.256a.058.058,0,0,0,0,.083l.81.81a.258.258,0,0,0,.169.083.271.271,0,0,0,.167-.081h0l1.932-1.942a.066.066,0,0,0,0-.083Z" transform="translate(-554.969 -413.788)"/><path class="c" d="M677.519,499.413a2.6,2.6,0,1,1-1.839.762,2.6,2.6,0,0,1,1.839-.762m0-.413a3.006,3.006,0,1,0,3,3.006,3.006,3.006,0,0,0-3-3.006Z" transform="translate(-549.395 -406.806)"/><ellipse class="a" cx="14.755" cy="2.475" rx="14.755" ry="2.475" transform="translate(91.143 159.186)"/><path class="g" d="M191.777,746.19s.769,1.006-.355,2.527-2.054,2.8-1.678,3.75c0,0,1.7-2.823,3.079-2.862S193.3,747.888,191.777,746.19Z" transform="translate(-164.728 -602.92)"/><path class="i" d="M191.945,746.19a1.259,1.259,0,0,1,.157.316c1.347,1.585,2.066,3.062.771,3.1-1.207.035-2.655,2.192-3,2.738a.968.968,0,0,0,.041.124s1.7-2.823,3.079-2.862S193.463,747.888,191.945,746.19Z" transform="translate(-164.895 -602.92)"/><path class="o" d="M206.148,751.527c0,.355-.039.643-.089.643s-.089-.287-.089-.643.05-.188.1-.188S206.148,751.174,206.148,751.527Z" transform="translate(-177.668 -606.974)"/><path class="o" d="M206.879,753.5c-.312.169-.583.273-.605.229s.207-.207.521-.386.188-.045.207,0S207.189,753.328,206.879,753.5Z" transform="translate(-177.908 -608.521)"/><path class="g" d="M173.6,746.19s-.771,1.006.355,2.527,2.052,2.8,1.678,3.75c0,0-1.7-2.823-3.079-2.862S172.08,747.888,173.6,746.19Z" transform="translate(-150.617 -602.92)"/><path class="i" d="M173.6,746.19a1.259,1.259,0,0,0-.157.316c-1.349,1.585-2.066,3.062-.771,3.1,1.207.035,2.655,2.192,3,2.738-.012.041-.025.083-.041.124,0,0-1.7-2.823-3.079-2.862S172.08,747.888,173.6,746.19Z" transform="translate(-150.617 -602.92)"/><path class="o" d="M173.3,751.527c0,.355.039.643.089.643s.089-.287.089-.643-.05-.188-.1-.188S173.3,751.174,173.3,751.527Z" transform="translate(-151.749 -606.974)"/><path class="o" d="M170.217,753.5c.31.169.581.273.605.229s-.207-.207-.521-.386-.188-.045-.207,0S169.905,753.328,170.217,753.5Z" transform="translate(-149.156 -608.521)"/><ellipse class="a" cx="8.048" cy="1.236" rx="8.048" ry="1.236" transform="translate(16.968 154.777)"/><path class="p" d="M178.283,768.2l-.039.316-.054.442-.023.186-.054.444-.023.186-.056.442-.62,5.05c-.054.45-.791.8-1.68.8h-3.2c-.889,0-1.624-.351-1.678-.8l-.62-5.05-.054-.442-.023-.186-.054-.444-.023-.186-.054-.442-.041-.316c-.031-.254.368-.469.87-.469h6.546C177.916,767.73,178.314,767.945,178.283,768.2Z" transform="translate(-149.124 -620.009)"/><path class="q" d="M109.409,718.7l-.054.444h-8.1l-.056-.444Z" transform="translate(-80.289 -570.196)"/><path class="q" d="M109.634,721.75l-.054.444h-7.947l-.054-.444Z" transform="translate(-80.591 -572.616)"/><path class="q" d="M109.851,724.79l-.056.444H102l-.054-.444Z" transform="translate(-80.884 -575.028)"/><path class="i" d="M557.187,453.523c-.138-.283-1.24-3.926-1.24-3.926l-2.122-5.387s-1.287-7.089-3.209-5.321,1.033,6.013,1.033,6.013a20.629,20.629,0,0,1,1.151,3.719,14.327,14.327,0,0,0,.676,2.893l-.24,1.306c-.312-.021-.514-.021-.514-.021s-.19.273-.372.291a.171.171,0,0,1-.091-.012,5.056,5.056,0,0,0-1.24-.074,2.777,2.777,0,0,1-.928-.3c-.12-.24-.8-.382-1.4-.463a12.127,12.127,0,0,1-1.188-3.428,1.481,1.481,0,0,1,.182-.934,1.165,1.165,0,0,1,.136-.169c.167-.169.372-.318.558-.475.093-.079.178-.159.258-.242a3.964,3.964,0,0,0-.1-5.536c-1.653-1.895-9.108-5.972-11.365-2.48a3.944,3.944,0,0,0-.413,1.593,6.641,6.641,0,0,1-1.781,3.513,11.488,11.488,0,0,0-2.159,2.43l-.014-.033a2.407,2.407,0,0,0-.223.62c-.217,1.1.523,2.153.911,3.221a5.785,5.785,0,0,1,.285,1.12l.025-.236a7.277,7.277,0,0,1,.1,1.653c-2.707.554-2.709,5.219-2.709,5.219a16.206,16.206,0,0,0-.277,2.523c.056.663.056,2.114.056,2.467s-.335,2.523-.372,2.783c-.048.287-.556,1.663.672,1.973.085.023.176.041.269.058.052,1.114.149,3.451.064,3.967a25.973,25.973,0,0,0,.816,3.926,9.312,9.312,0,0,0,.827,1.333,1.447,1.447,0,0,1-.188.539c-.188.275-.091.5.225.6q-.014.143-.037.322a16.615,16.615,0,0,0,0,4.833,12.281,12.281,0,0,1,.5,2.225,1.653,1.653,0,0,0,.194.779,16.325,16.325,0,0,1,.558,3.283c0,.417.946,4.174.667,5.064a5.456,5.456,0,0,0-.056,2.143,18.444,18.444,0,0,1-.362,2.672,67.432,67.432,0,0,0,.027,10.073c.306,1.975.5,3.618.5,3.618a7.819,7.819,0,0,0-.029,2.066c.178.258.473,1.754.25,1.837s-.333.7-.333.7a6.112,6.112,0,0,0,.38.519,2.111,2.111,0,0,1-.252-.107c.089.126.221.3.382.49l-.151,2a.335.335,0,0,0,.248.351,2.777,2.777,0,0,0,2.765-.783c1.391-1.419,1.86-1.223,2.116-2.087.025-.093.05-.182.068-.269a.9.9,0,0,0-1.279-1.013,6.566,6.566,0,0,0,.091-1.69,25.366,25.366,0,0,1-.112-2.922l-.194-10.125a13.806,13.806,0,0,1,.779-2.781,12.086,12.086,0,0,0,.362-3.513l.473-8.961.471-4.339s.444-1.5,1,.167a33.079,33.079,0,0,0-.165,4.174,37.241,37.241,0,0,1,.194,5.593c-.138.864-.752,5.593-.362,6.79a11.114,11.114,0,0,1,.723,3.116c-.083.473-.362,10.745-.362,10.745s.75,1.975.194,2.616-.027,3.2-.027,3.2.066.047.182.116l-.017.207-.174,2.3a.337.337,0,0,0,.248.351,2.781,2.781,0,0,0,2.765-.783c1.391-1.42,1.86-1.225,2.116-2.087.025-.093.05-.184.07-.271a.9.9,0,0,0-1.459-.9.2.2,0,0,1-.031.027c-.035.031-.072.058-.11.085l-.054.035a7.726,7.726,0,0,0,.246-2.234,17.24,17.24,0,0,1,.138-3.033,23,23,0,0,0,.826-3.812c.019-1.085.223-8.678.223-8.678s-.027-3.533.085-4.395,1-8.321,1.891-10.538c.684-1.707.99-6.056.808-8.265-.01-.112-.021-.207-.031-.314a3.308,3.308,0,0,0,1.2-2.165,11.458,11.458,0,0,0-1.967-2.746,3.753,3.753,0,0,1-1.151-2.82,1.465,1.465,0,0,0-.333-1s-.446-1.446-.744-1.6a.207.207,0,0,1-.064-.05c-.207-.219-.048-.841-.048-.841v-.019a5.132,5.132,0,0,0,.18-1.318,9.506,9.506,0,0,1,.037-1.484,11.961,11.961,0,0,0,.6-3.783,1.3,1.3,0,0,1,1.446-1.523l4.812-.05h.548a4.036,4.036,0,0,0,.62-.663,1.326,1.326,0,0,0,1.064-.26A3.349,3.349,0,0,0,557.187,453.523Zm-22.38,14.464.035-.847.188.161a1.355,1.355,0,0,1,0,.678.723.723,0,0,1-.413.471.456.456,0,0,0-.068.041l-.047-.484c.2-.012.306-.023.306-.023Z" transform="translate(-435.103 -358.104)"/><path class="r" d="M628.185,456.368s2.74,1.763,3.777.827a3.353,3.353,0,0,0,.769-3.027c-.141-.285-1.256-3.953-1.256-3.953l-2.155-5.43s-1.31-7.147-3.265-5.372,1.054,6.06,1.054,6.06a20.122,20.122,0,0,1,1.169,3.752,13.9,13.9,0,0,0,.686,2.92Z" transform="translate(-510.429 -359.306)"/><path class="s" d="M593.88,826.456c-.021.089-.043.18-.072.273-.254.87-.736.674-2.149,2.1a2.837,2.837,0,0,1-2.81.789.339.339,0,0,1-.252-.353l.178-2.32.085-1.118s2.25.632,3.4-.167c.037-.027.074-.054.109-.085l.033-.027a.919.919,0,0,1,1.482.9Z" transform="translate(-481.233 -665.718)"/><path class="t" d="M559.716,822.211c-.019.089-.043.18-.07.273-.254.87-.736.674-2.149,2.1a2.845,2.845,0,0,1-2.81.791.337.337,0,0,1-.252-.355l.176-2.32.087-1.118s2.25.632,3.395-.167c.039-.027.074-.054.112-.085l.033-.027a.917.917,0,0,1,1.479.905Z" transform="translate(-454.13 -662.349)"/><g class="u" transform="translate(100.063 160.164)"><path class="v" d="M556.462,828l.093,1.2c-1.294,1.281-2.831-.62-3.285-1.252A5.437,5.437,0,0,0,556.462,828Z" transform="translate(-553.27 -827.95)"/></g><g class="u" transform="translate(107.541 159.945)"><path class="w" d="M592.768,827.646l.172-.112a2.438,2.438,0,0,1-3.48.641l.085-1.118s2.25.632,3.4-.167C592.851,827.326,592.768,827.646,592.768,827.646Z" transform="translate(-589.46 -826.89)"/></g><path class="x" d="M558.885,630.287c-.905,2.244-1.81,9.763-1.924,10.633s-.085,4.432-.085,4.432l-.236,8.753a23.649,23.649,0,0,1-.847,3.843,17.23,17.23,0,0,0-.143,3.058,10.345,10.345,0,0,1-.368,2.75l.172-.112c-1.415,2.13-3.649.531-3.649.531s-.537-2.581.027-3.225-.2-2.637-.2-2.637.281-10.352.368-10.829a10.5,10.5,0,0,0-.736-3.143c-.413-1.207.225-5.976.368-6.846a36.255,36.255,0,0,0-.207-5.639,31.973,31.973,0,0,1,.169-4.209c-.566-1.682-1.019-.167-1.019-.167l-.453,4.405-.465,9.044a11.992,11.992,0,0,1-.368,3.533,13.733,13.733,0,0,0-.791,2.806l.207,10.212a24.979,24.979,0,0,0,.114,2.947,12.1,12.1,0,0,1-.312,2.918c-1.583,3.7-4.133-.308-4.133-.308s.112-.62.339-.7-.085-1.6-.254-1.86a8.2,8.2,0,0,1,.027-2.066s-.2-1.653-.508-3.649a67.455,67.455,0,0,1-.029-10.156,18.544,18.544,0,0,0,.368-2.686,5.482,5.482,0,0,1,.058-2.161c.283-.9-.68-4.684-.68-5.106a17.083,17.083,0,0,0-.566-3.306,1.653,1.653,0,0,1-.207-.785,12.408,12.408,0,0,0-.51-2.244,16.051,16.051,0,0,1,0-4.872c.05-.453.091-.74.091-.74s16.235-2.61,16.886-2.019a2.536,2.536,0,0,1,.312,1.294C559.89,624.182,559.578,628.568,558.885,630.287Z" transform="translate(-444.443 -503.279)"/><g class="u" transform="translate(108.304 139.577)"><path class="y" d="M593.15,728.366a15.132,15.132,0,0,0,2.527.019C596.344,728.252,593.15,728.366,593.15,728.366Z" transform="translate(-593.15 -728.32)"/></g><g class="u" transform="translate(108.436 140.67)"><path class="z" d="M593.79,733.609s2.48.43,2.6.207S593.79,733.609,593.79,733.609Z" transform="translate(-593.79 -733.609)"/></g><g class="u" transform="translate(100.875 140.222)"><path class="aa" d="M557.2,731.44a6.861,6.861,0,0,1,1.979.374C559.878,732.132,557.2,731.44,557.2,731.44Z" transform="translate(-557.2 -731.44)"/></g><path class="ab" d="M534.66,579.039s.207,3.909.1,4.6a26.4,26.4,0,0,0,.827,3.965,11.389,11.389,0,0,0,1.188,1.814l1.112-7.761L537.623,579Z" transform="translate(-438.442 -470.276)"/><ellipse class="ac" cx="4.356" cy="4.321" rx="4.356" ry="4.321" transform="translate(103.553 82.315)"/><path class="ad" d="M569.356,481.319a17.132,17.132,0,0,1-2.715,3.872c-1.358,1.236,8.145,2.637,8.37,2.637s-1.7-5.61-1.358-6.284S569.356,481.319,569.356,481.319Z" transform="translate(-463.709 -392.662)"/><g class="u" transform="translate(97.974 117.303)"><path class="ae" d="M560.448,621.895a2.823,2.823,0,0,1-.7.388c-1.734.674-3.62,1.61-4.9,1.24a13.635,13.635,0,0,0-4,0s-5.469-.45-6.562-.188a2.12,2.12,0,0,1-1.128.029c.05-.453.091-.74.091-.74s16.235-2.61,16.886-2.019A2.481,2.481,0,0,1,560.448,621.895Z" transform="translate(-543.16 -620.518)"/></g><path class="af" d="M553.695,521.216a3.153,3.153,0,0,1-1.887,2.544c-1.736.684-3.62,1.61-4.9,1.24a13.635,13.635,0,0,0-4,0s-5.469-.45-6.562-.188-1.653-.074-1.32-.562a7.411,7.411,0,0,0,.3-2.767c0-.674-.378-3.405-.039-3.891s.641-2.356,1.32-2.655a.733.733,0,0,0,.424-.475,1.336,1.336,0,0,0,0-.684s-.114-.093-.273-.233c-.4-.353-1.077-1.01-.86-1.225.3-.3,0-2.246,0-2.246s-.717-1.5-.453-2.056-2.3-3.513-2.3-3.513,0-5.087,3.1-5.312c0,0,2.186.076,2.451-.9s2-1.535,2-1.535l3.959.862s3.513.748,4.149.3,1.132.6,1.132.6,2.186.114,2.413.562-.717,4.825-.717,4.825a1.319,1.319,0,0,0-1.471,1.535,11.977,11.977,0,0,1-.6,3.814,8.883,8.883,0,0,0-.037,1.5,4.79,4.79,0,0,1-.184,1.329v.019s-.157.62.047.849a.309.309,0,0,0,.066.05c.3.149.754,1.608.754,1.608a1.473,1.473,0,0,1,.341,1.01,3.773,3.773,0,0,0,1.167,2.843A11.348,11.348,0,0,1,553.695,521.216Z" transform="translate(-437.244 -405.029)"/><path class="ag" d="M533.94,541.182v.159l-.07,1.75a14.724,14.724,0,0,1-3.583-.132c-1.265-.318-.729-1.7-.68-1.99h0c.037-.262.376-2.451.376-2.806s0-1.814-.056-2.48a16.322,16.322,0,0,1,.283-2.544l.244-.3,2.659,1.01Z" transform="translate(-434.31 -433.654)"/><g class="u" transform="translate(95.138 107.319)"><path class="ah" d="M533.92,572.572l-.07,1.75a14.727,14.727,0,0,1-3.583-.132c-1.265-.318-.729-1.7-.68-1.99Z" transform="translate(-529.432 -572.2)"/></g><g class="u" transform="translate(99.528 107.042)"><path class="ai" d="M550.953,573.247a1.338,1.338,0,0,0,0-.684s-.114-.093-.273-.234c2-.275,9.906-1.353,12.571-1.469v.019s-.157.62.047.849Z" transform="translate(-550.68 -570.86)"/></g><g class="u" transform="translate(111.039 110.79)"><path class="aj" d="M607.729,589s.49,2.75-1.339,3.719A8.356,8.356,0,0,0,607.729,589Z" transform="translate(-606.39 -589)"/></g><g class="u" transform="translate(100.404 114.191)"><path class="ak" d="M554.92,605.847s4.411-.748,5.279-.169S554.92,605.847,554.92,605.847Z" transform="translate(-554.92 -605.458)"/></g><g class="u" transform="translate(110.491 97.541)"><path class="al" d="M604.094,524.88s-.678,2.767-.169,3.4S604.094,524.88,604.094,524.88Z" transform="translate(-603.735 -524.88)"/></g><g class="u" transform="translate(98.044 95.277)"><path class="am" d="M543.519,513.92a2.728,2.728,0,0,1,.246,2.1C543.391,517.077,543.519,513.92,543.519,513.92Z" transform="translate(-543.497 -513.92)"/></g><path class="an" d="M537.4,557.55s.791.469.527,1.2S537.4,557.55,537.4,557.55Z" transform="translate(-440.616 -453.258)"/><g class="u" transform="translate(96.702 102.159)"><path class="ao" d="M537,547.23s.736.395.827.973S537,547.23,537,547.23Z" transform="translate(-537 -547.23)"/></g><g class="u" transform="translate(107.607 123.909)"><path class="ap" d="M589.78,653.11s4.62.469,5.544-.62A27.758,27.758,0,0,1,589.78,653.11Z" transform="translate(-589.78 -652.49)"/></g><g class="u" transform="translate(99.632 124.268)"><path class="aq" d="M551.18,654.23s4.959,1.159,5.938.242C557.118,654.472,552.858,654.79,551.18,654.23Z" transform="translate(-551.18 -654.23)"/></g><g class="u" transform="translate(107.965 126.045)"><path class="ar" d="M591.51,662.83s2.066,0,3.035.056S591.51,662.83,591.51,662.83Z" transform="translate(-591.51 -662.83)"/></g><g class="u" transform="translate(99.97 126.924)"><path class="as" d="M552.82,667.08a2.757,2.757,0,0,0,2.168.936C556.136,667.812,552.82,667.08,552.82,667.08Z" transform="translate(-552.82 -667.08)"/></g><path class="at" d="M544.67,435.693a3.809,3.809,0,0,0-.413,1.605,6.678,6.678,0,0,1-1.81,3.552c-.905.955-2.147,1.818-2.38,2.984-.221,1.108.531,2.172.926,3.248,1.033,2.841-.413,5.819-.837,8.751-.116.81.025,1.845,1.033,2.114a5.956,5.956,0,0,1,.955.207,1.138,1.138,0,0,1,.566.891,13.57,13.57,0,0,1,.258,3.664,2.017,2.017,0,0,0,.56,1.955,3.332,3.332,0,0,0,1.087.43c1.033.277,2.37.5,3.066-.149.293-.271.413-.655.767-.87.546-.32,1.32-.1,2.008-.07a3.647,3.647,0,0,0,3.267-1.74,4.628,4.628,0,0,0,.3-3.2,19.868,19.868,0,0,1-.589-3.211,1.86,1.86,0,0,1,.244-1.089c.413-.645,1.4-.938,2.066-1.446a3.239,3.239,0,0,0,.793-3.812c-.446-1.3-1.273-2.55-1.374-3.9a1.48,1.48,0,0,1,.186-.942,3.673,3.673,0,0,1,.76-.707c1.829-1.531,1.614-4.048.1-5.769C554.535,436.278,546.954,432.166,544.67,435.693Z" transform="translate(-442.7 -355.484)"/><g class="u" transform="translate(97.271 84.621)"><path class="au" d="M541.007,482.61a7.039,7.039,0,0,0-.287-3.372c-.207-.543-.49-1.085-.7-1.628a2.312,2.312,0,0,0-.227.62c-.223,1.105.531,2.17.926,3.248A5.873,5.873,0,0,1,541.007,482.61Z" transform="translate(-539.754 -474.457)"/><path class="av" d="M543.076,540.054a13.492,13.492,0,0,0-.26-3.664,1.141,1.141,0,0,0-.564-.891,5.61,5.61,0,0,0-.957-.207,1.3,1.3,0,0,1-.88-.723c-.056.285-.107.57-.149.853-.118.81.023,1.845,1.033,2.114a6.038,6.038,0,0,1,.957.207,1.141,1.141,0,0,1,.564.891,13.461,13.461,0,0,1,.244,1.692C543.059,540.238,543.076,540.145,543.076,540.054Z" transform="translate(-540.132 -519.647)"/><path class="aw" d="M564.621,555.827a3.645,3.645,0,0,1-3.265,1.74c-.688-.033-1.463-.25-2.008.07-.364.207-.475.6-.767.87-.7.647-2.033.426-3.066.149a3.306,3.306,0,0,1-1.087-.43,1.335,1.335,0,0,1-.535-.864c0,.384,0,.771-.025,1.155a2.015,2.015,0,0,0,.56,1.953,3.307,3.307,0,0,0,1.087.43c1.033.279,2.37.5,3.066-.149.291-.271.413-.653.767-.868.545-.322,1.32-.105,2.008-.07a3.641,3.641,0,0,0,3.265-1.742,4.517,4.517,0,0,0,.326-3.07A3.343,3.343,0,0,1,564.621,555.827Z" transform="translate(-550.933 -535.856)"/><path class="ax" d="M613.9,464.013a3.686,3.686,0,0,0-.762.707,1.481,1.481,0,0,0-.184.942,4.872,4.872,0,0,0,.258,1.2,5.165,5.165,0,0,1,.688-.605,3.61,3.61,0,0,0,1.136-3.907A3.589,3.589,0,0,1,613.9,464.013Z" transform="translate(-597.82 -462.35)"/><path class="ay" d="M606.923,510.993c-.669.506-1.653.8-2.066,1.446a1.845,1.845,0,0,0-.244,1.089,7.5,7.5,0,0,0,.161,1.3,1.467,1.467,0,0,1,.083-.147c.413-.643,1.4-.938,2.066-1.446a3.093,3.093,0,0,0,.9-3.467A2.618,2.618,0,0,1,606.923,510.993Z" transform="translate(-591.206 -499.972)"/></g><path class="az" d="M627.588,509.929a6.614,6.614,0,0,1-1.773,2.711h-.556l-4.893.05-.566-1.533.793-3.306.488.031a2.831,2.831,0,0,0,.942.3,5.223,5.223,0,0,1,1.262.074.163.163,0,0,0,.093.012c.184-.019.38-.293.38-.293S628.361,507.982,627.588,509.929Z" transform="translate(-505.99 -413.828)"/><g class="u" transform="translate(117.391 94.13)"><path class="ba" d="M641.337,510.341a6.614,6.614,0,0,1-1.773,2.711h-.556a25.643,25.643,0,0,1,1.141-2.717c.24-.364-1.82-1.207-3.019-1.672.184-.019.38-.293.38-.293S642.11,508.395,641.337,510.341Z" transform="translate(-637.13 -508.37)"/></g><path class="bb" d="M627.661,459.523s2.686,1.748,3.719.814a3.31,3.31,0,0,0,.756-3c-.138-.283-1.24-3.926-1.24-3.926l-2.122-5.387s-1.287-7.089-3.209-5.321,1.033,6.013,1.033,6.013a20.629,20.629,0,0,1,1.151,3.719,14.327,14.327,0,0,0,.676,2.893Z" transform="translate(-510.049 -361.916)"/><path class="g" d="M593.9,826.613c-.021.087-.045.178-.07.271-.252.862-.725.667-2.116,2.087a2.781,2.781,0,0,1-2.765.783.337.337,0,0,1-.248-.351l.174-2.3.085-1.107s2.215.62,3.341-.167c.037-.027.074-.054.11-.085a.194.194,0,0,0,.031-.027.905.905,0,0,1,1.459.9Z" transform="translate(-481.32 -665.848)"/><path class="g" d="M560.262,822.411c-.019.087-.043.176-.068.269-.252.864-.725.667-2.116,2.087a2.777,2.777,0,0,1-2.765.783.335.335,0,0,1-.248-.351l.174-2.3.085-1.108s2.215.62,3.341-.167a1.276,1.276,0,0,0,.109-.083l.031-.029a.905.905,0,0,1,1.457.9Z" transform="translate(-454.63 -662.514)"/><path class="i" d="M557.091,828.163l.091,1.2c-1.271,1.269-2.785-.62-3.232-1.24A5.359,5.359,0,0,0,557.091,828.163Z" transform="translate(-453.746 -667.921)"/><path class="i" d="M592.806,827.8l.167-.11a2.388,2.388,0,0,1-3.424.634l.085-1.107s2.215.62,3.341-.167C592.887,827.482,592.806,827.8,592.806,827.8Z" transform="translate(-481.99 -667.072)"/><path class="bc" d="M559.511,631.928c-.891,2.225-1.781,9.683-1.891,10.538s-.085,4.4-.085,4.4l-.223,8.678a23.909,23.909,0,0,1-.826,3.812,17.184,17.184,0,0,0-.138,3.033,10.259,10.259,0,0,1-.362,2.727l.167-.112c-1.391,2.114-3.589.529-3.589.529s-.529-2.56.027-3.2-.194-2.616-.194-2.616.279-10.267.362-10.745a11.158,11.158,0,0,0-.723-3.116c-.388-1.2.223-5.928.362-6.79a37.525,37.525,0,0,0-.194-5.593,33.5,33.5,0,0,1,.165-4.174c-.556-1.67-1-.167-1-.167l-.446,4.368-.481,8.97a12.107,12.107,0,0,1-.362,3.513,13.877,13.877,0,0,0-.777,2.773l.194,10.125a25.352,25.352,0,0,0,.112,2.922,12.206,12.206,0,0,1-.306,2.893c-1.558,3.672-4.062-.306-4.062-.306s.112-.62.333-.7-.083-1.587-.25-1.837a8.294,8.294,0,0,1,.029-2.066s-.207-1.643-.5-3.618a68.86,68.86,0,0,1-.027-10.073,18.452,18.452,0,0,0,.362-2.672,5.457,5.457,0,0,1,.056-2.143c.279-.891-.667-4.647-.667-5.064a17.087,17.087,0,0,0-.558-3.283,1.653,1.653,0,0,1-.194-.779,12.279,12.279,0,0,0-.5-2.225,16.061,16.061,0,0,1,0-4.833c.05-.448.091-.734.091-.734s15.972-2.587,16.613-2a2.562,2.562,0,0,1,.306,1.283C560.5,625.862,560.2,630.211,559.511,631.928Z" transform="translate(-445.162 -504.608)"/><path class="i" d="M593.19,729.329a14.822,14.822,0,0,0,2.48.019C596.312,729.218,593.19,729.329,593.19,729.329Z" transform="translate(-484.878 -589.508)"/><path class="i" d="M593.82,734.529s2.43.428,2.56.207S593.82,734.529,593.82,734.529Z" transform="translate(-485.378 -593.669)"/><path class="i" d="M557.82,732.38a6.731,6.731,0,0,1,1.946.37C560.452,733.064,557.82,732.38,557.82,732.38Z" transform="translate(-456.816 -591.964)"/><path class="bb" d="M535.64,581.227s.207,3.876.093,4.562a25.974,25.974,0,0,0,.816,3.926,11.378,11.378,0,0,0,1.169,1.8l1.1-7.691-.258-2.635Z" transform="translate(-439.219 -472.014)"/><circle class="bb" cx="4.285" cy="4.285" r="4.285" transform="translate(103.638 82.982)"/><path class="bb" d="M569.77,484.3a16.961,16.961,0,0,1-2.672,3.839c-1.337,1.225,8.015,2.616,8.238,2.616s-1.67-5.567-1.337-6.234S569.77,484.3,569.77,484.3Z" transform="translate(-464.074 -395.027)"/><path class="i" d="M561.01,623.719a2.8,2.8,0,0,1-.686.386c-1.707.667-3.562,1.6-4.825,1.223a13.088,13.088,0,0,0-3.926,0,47.344,47.344,0,0,0-6.455-.186,2.081,2.081,0,0,1-1.118.023c.05-.448.091-.734.091-.734s15.972-2.587,16.613-2A2.535,2.535,0,0,1,561.01,623.719Z" transform="translate(-445.852 -504.664)"/><path class="g" d="M554.353,523.834a3.111,3.111,0,0,1-1.86,2.523c-1.711.663-3.562,1.6-4.825,1.225a13.16,13.16,0,0,0-3.926,0,47.018,47.018,0,0,0-6.455-.186c-1.083.26-1.632-.074-1.3-.558a7.275,7.275,0,0,0,.3-2.744c0-.678-.372-3.376-.037-3.86s.62-2.337,1.3-2.635a.723.723,0,0,0,.413-.471,1.356,1.356,0,0,0,0-.678s-.112-.093-.269-.231c-.393-.351-1.058-1-.843-1.215.3-.3,0-2.227,0-2.227s-.707-1.484-.446-2.039-2.273-3.488-2.273-3.488,0-5.046,3.044-5.269c0,0,2.151.074,2.411-.891s1.967-1.521,1.967-1.521l3.895.853s3.451.742,4.081.3,1.105.591,1.105.591,2.151.112,2.374.556-.7,4.785-.7,4.785a1.3,1.3,0,0,0-1.446,1.523,11.961,11.961,0,0,1-.6,3.783,8.949,8.949,0,0,0-.037,1.484,4.851,4.851,0,0,1-.18,1.318v.019s-.153.62.048.841a.2.2,0,0,0,.064.05c.3.147.744,1.6.744,1.6a1.465,1.465,0,0,1,.333,1,3.753,3.753,0,0,0,1.151,2.82A11.487,11.487,0,0,1,554.353,523.834Z" transform="translate(-438.021 -407.258)"/><path class="g" d="M534.992,543.642v.157l-.068,1.736a14.225,14.225,0,0,1-3.513-.13c-1.24-.316-.719-1.686-.672-1.973.037-.26.372-2.432.372-2.783s0-1.8-.056-2.467a16.137,16.137,0,0,1,.277-2.523l.242-.3,2.616,1Z" transform="translate(-435.213 -435.653)"/><path class="i" d="M534.961,574.788l-.068,1.736a14.225,14.225,0,0,1-3.513-.13c-1.24-.316-.719-1.686-.672-1.973Z" transform="translate(-435.189 -466.643)"/><path class="i" d="M551.629,575.516a1.356,1.356,0,0,0,0-.678s-.112-.093-.269-.231c1.967-.273,9.747-1.341,12.369-1.446v.019s-.153.62.048.841Z" transform="translate(-451.691 -465.643)"/><path class="i" d="M607.526,591.06s.484,2.727-1.316,3.692A8.282,8.282,0,0,0,607.526,591.06Z" transform="translate(-495.208 -479.844)"/><path class="i" d="M555.57,607.81s4.339-.742,5.195-.167S555.57,607.81,555.57,607.81Z" transform="translate(-455.031 -492.827)"/><path class="i" d="M603.954,527.5s-.667,2.746-.167,3.376S603.954,527.5,603.954,527.5Z" transform="translate(-493.137 -429.417)"/><path class="i" d="M544.348,516.64a2.664,2.664,0,0,1,.242,2.077C544.212,519.775,544.348,516.64,544.348,516.64Z" transform="translate(-446.109 -420.801)"/><path class="g" d="M538.34,559.91s.779.465.519,1.188S538.34,559.91,538.34,559.91Z" transform="translate(-441.362 -455.131)"/><path class="i" d="M538,549.68s.723.388.816.963S538,549.68,538,549.68Z" transform="translate(-441.092 -447.014)"/><path class="i" d="M589.87,654.67s4.546.465,5.453-.62A27.345,27.345,0,0,1,589.87,654.67Z" transform="translate(-482.244 -529.819)"/><path class="i" d="M551.89,655.79s4.878,1.151,5.843.242C557.733,656.04,553.541,656.348,551.89,655.79Z" transform="translate(-452.112 -531.199)"/><path class="i" d="M591.57,664.32s2.041,0,2.988.056S591.57,664.32,591.57,664.32Z" transform="translate(-483.593 -537.967)"/><path class="i" d="M553.51,668.54a2.7,2.7,0,0,0,2.132.928C556.773,669.263,553.51,668.54,553.51,668.54Z" transform="translate(-453.397 -541.315)"/><path class="bd" d="M545.435,439.021a3.943,3.943,0,0,0-.413,1.593,6.641,6.641,0,0,1-1.781,3.513c-.889.946-2.11,1.8-2.341,2.959-.217,1.1.523,2.153.911,3.221,1.033,2.816-.413,5.771-.827,8.678-.116.8.023,1.831,1.013,2.1a5.44,5.44,0,0,1,.942.207,1.128,1.128,0,0,1,.554.882,13.527,13.527,0,0,1,.256,3.635,2.013,2.013,0,0,0,.55,1.94,3.327,3.327,0,0,0,1.07.426c1.017.275,2.331.492,3.017-.149.287-.269.395-.649.754-.862.537-.318,1.3-.1,1.975-.07a3.581,3.581,0,0,0,3.213-1.725,4.624,4.624,0,0,0,.3-3.17,19.772,19.772,0,0,1-.579-3.186,1.841,1.841,0,0,1,.24-1.079c.413-.641,1.374-.932,2.033-1.434a3.206,3.206,0,0,0,.781-3.781c-.446-1.3-1.254-2.529-1.353-3.866a1.481,1.481,0,0,1,.182-.934,3.757,3.757,0,0,1,.767-.684c1.8-1.519,1.587-4.015.1-5.721C555.147,439.61,547.688,435.533,545.435,439.021Z" transform="translate(-443.362 -358.138)"/><g class="u" transform="translate(97.456 85.27)"><path d="M541.886,485.579a7.06,7.06,0,0,0-.285-3.345c-.194-.539-.479-1.074-.688-1.614a2.409,2.409,0,0,0-.223.62c-.217,1.1.523,2.153.911,3.221a5.792,5.792,0,0,1,.285,1.118Z" transform="translate(-540.651 -477.494)"/><path d="M543.9,542.55a13.529,13.529,0,0,0-.256-3.635,1.128,1.128,0,0,0-.554-.882,5.443,5.443,0,0,0-.942-.207,1.293,1.293,0,0,1-.866-.717c-.056.281-.105.564-.147.845-.116.8.023,1.831,1.012,2.1a5.443,5.443,0,0,1,.942.207,1.132,1.132,0,0,1,.554.884,13.613,13.613,0,0,1,.24,1.678C543.89,542.73,543.9,542.639,543.9,542.55Z" transform="translate(-541.01 -522.311)"/><path d="M565.137,558.16a3.579,3.579,0,0,1-3.213,1.725c-.676-.033-1.446-.248-1.975.07-.357.207-.467.593-.754.862-.686.641-2,.424-3.017.149a3.253,3.253,0,0,1-1.068-.428,1.347,1.347,0,0,1-.529-.855c0,.38,0,.762-.023,1.143a2.009,2.009,0,0,0,.552,1.94,3.3,3.3,0,0,0,1.068.426c1.017.275,2.331.492,3.017-.147.287-.271.4-.651.754-.864.537-.318,1.3-.1,1.975-.07a3.579,3.579,0,0,0,3.213-1.725,4.507,4.507,0,0,0,.32-3.046A3.364,3.364,0,0,1,565.137,558.16Z" transform="translate(-551.665 -538.361)"/><path d="M613.6,467.139a3.642,3.642,0,0,0-.75.7,1.482,1.482,0,0,0-.182.934,4.994,4.994,0,0,0,.256,1.192,4.883,4.883,0,0,1,.676-.6,3.605,3.605,0,0,0,1.118-3.874,3.55,3.55,0,0,1-1.118,1.649Z" transform="translate(-597.777 -465.49)"/><path d="M606.738,513.733c-.659.5-1.62.793-2.033,1.432a1.86,1.86,0,0,0-.24,1.081,7.58,7.58,0,0,0,.159,1.291.989.989,0,0,1,.081-.145c.413-.641,1.374-.932,2.033-1.434a3.085,3.085,0,0,0,.886-3.438A2.612,2.612,0,0,1,606.738,513.733Z" transform="translate(-591.274 -502.802)"/></g><path class="g" d="M627.072,512.648a6.512,6.512,0,0,1-1.746,2.686h-.548l-4.812.05-.556-1.521.779-3.283.481.019a2.777,2.777,0,0,0,.928.3,5.045,5.045,0,0,1,1.24.074.171.171,0,0,0,.091.012c.182-.019.372-.291.372-.291S627.83,510.718,627.072,512.648Z" transform="translate(-505.68 -415.994)"/><path class="i" d="M640.6,513.124a6.512,6.512,0,0,1-1.746,2.686h-.548a25.18,25.18,0,0,1,1.124-2.686c.236-.353-1.791-1.2-2.969-1.653.182-.019.372-.291.372-.291S641.357,511.194,640.6,513.124Z" transform="translate(-519.207 -416.47)"/></g></svg>