<svg xmlns="http://www.w3.org/2000/svg" width="19.23" height="16.271" viewBox="0 0 19.23 16.271"><defs><style>.a{fill:#606dc3;}</style></defs><g transform="translate(0 -36.547)"><g transform="translate(0 36.547)"><g transform="translate(0 0)"><path class="a" d="M6.657,36.547H2.219a2.14,2.14,0,0,0-1.572.647A2.14,2.14,0,0,0,0,38.766V43.2a2.139,2.139,0,0,0,.647,1.572,2.141,2.141,0,0,0,1.572.647H4.807a1.1,1.1,0,0,1,1.109,1.11v.37a2.85,2.85,0,0,1-.867,2.092,2.851,2.851,0,0,1-2.092.867h-.74a.711.711,0,0,0-.52.22.711.711,0,0,0-.22.52v1.479a.711.711,0,0,0,.22.52.712.712,0,0,0,.52.22h.74a5.766,5.766,0,0,0,2.294-.468,5.961,5.961,0,0,0,1.889-1.266A5.963,5.963,0,0,0,8.407,49.2,5.764,5.764,0,0,0,8.875,46.9V38.766a2.209,2.209,0,0,0-2.219-2.219Z" transform="translate(0 -36.547)"/><path class="a" d="M264.045,37.194a2.139,2.139,0,0,0-1.572-.647h-4.438a2.209,2.209,0,0,0-2.219,2.219V43.2a2.209,2.209,0,0,0,2.219,2.219h2.589a1.1,1.1,0,0,1,1.11,1.11v.37a2.959,2.959,0,0,1-2.959,2.958h-.74a.75.75,0,0,0-.74.74v1.479a.75.75,0,0,0,.74.74h.74a5.766,5.766,0,0,0,2.294-.468,5.861,5.861,0,0,0,3.155-3.155,5.764,5.764,0,0,0,.468-2.294V38.766A2.139,2.139,0,0,0,264.045,37.194Z" transform="translate(-245.462 -36.547)"/></g></g></g></svg>